<svg xmlns="http://www.w3.org/2000/svg" width="67.163" height="56.858" viewBox="0 0 67.163 56.858">
  <g id="Group_54" data-name="Group 54" transform="translate(-2.233 -7.03)">
    <path id="Path_99" data-name="Path 99" d="M54.005,10.245A3.894,3.894,0,0,0,50.181,7.03a4.694,4.694,0,0,0-.678.062,3.874,3.874,0,0,0-3.163,4.474v.008l.315,1.942L8.274,30.193a3.812,3.812,0,0,0-6,3.662L3.283,40.57a3.819,3.819,0,0,0,3.768,3.249,3.927,3.927,0,0,0,.575-.043A3.8,3.8,0,0,0,10.368,41.9l.044.007,6.7,19.2A4.143,4.143,0,0,0,22.4,63.654a4.146,4.146,0,0,0,2.552-5.278l0-.009L19.628,43.132,52.17,47.456l.113.7a3.892,3.892,0,0,0,4.489,3.178h.009a3.892,3.892,0,0,0,3.162-4.491ZM7.277,41.506a1.48,1.48,0,0,1-1.129-.281,1.512,1.512,0,0,1-.6-1L4.542,33.515a1.513,1.513,0,0,1,1.264-1.727l.015,0a1.374,1.374,0,0,1,.226-.018,1.515,1.515,0,0,1,.894.291,1.7,1.7,0,0,1,.252.233c.015.017.023.04.037.058a1.584,1.584,0,0,1,.313.709l1.01,6.719a1.445,1.445,0,0,1-.009.252,1.419,1.419,0,0,1-.017.339A1.524,1.524,0,0,1,7.277,41.506Zm9.8,1.287,5.7,16.333a1.842,1.842,0,0,1-.081,1.423,1.812,1.812,0,0,1-1.052.936H21.64a1.849,1.849,0,0,1-2.36-1.139L12.956,42.241l2.221.295Zm34.7,2.292-33.7-4.477-7.227-.965c-.007-.067-.016-.132-.026-.2v-.006L9.823,32.724a3.9,3.9,0,0,0-.148-.61l-.007-.025,32.68-14.2L45.6,39.547a1.146,1.146,0,0,0,1.129.977,1.241,1.241,0,0,0,.172-.012,1.148,1.148,0,0,0,.964-1.305L44.528,16.941l2.507-1.089.8,4.9Zm4.6,3.985A1.609,1.609,0,0,1,55.2,48.8a1.574,1.574,0,0,1-.648-1.016L50.979,25.84l-1.92-11.812v-.006l-.452-2.832A1.579,1.579,0,0,1,48.874,10a1.543,1.543,0,0,1,1-.64,2.1,2.1,0,0,1,.315-.034,1.6,1.6,0,0,1,1.563,1.308L57.684,47.22A1.6,1.6,0,0,1,56.386,49.071Z" transform="translate(0 0)" fill="#666"/>
    <path id="Path_100" data-name="Path 100" d="M53,21.451a1.13,1.13,0,0,0,.638-.2l5.153-3.462a1.147,1.147,0,1,0-1.279-1.905l-5.157,3.463a1.147,1.147,0,0,0,.641,2.1Z" transform="translate(6.413 1.12)" fill="#666"/>
    <path id="Path_101" data-name="Path 101" d="M61.8,31.79,55.771,30.3a1.147,1.147,0,0,0-.551,2.227l6.025,1.494a1.2,1.2,0,0,0,.277.033A1.147,1.147,0,0,0,61.8,31.8Z" transform="translate(6.739 3.004)" fill="#666"/>
    <path id="Path_102" data-name="Path 102" d="M59.279,26.4a1.148,1.148,0,0,0-.209-2.286h0l-4.678.428a1.147,1.147,0,0,0,.1,2.29H54.6Z" transform="translate(6.606 2.207)" fill="#666"/>
  </g>
</svg>
