<svg xmlns="http://www.w3.org/2000/svg" width="58" height="60.942" viewBox="0 0 58 60.942">
  <g id="Group_34" data-name="Group 34" transform="translate(-5 -1)">
    <path id="Path_32" data-name="Path 32" d="M57.83,34.83A4,4,0,0,0,55,28H43.84a11.88,11.88,0,0,0-7.91-10.21,7,7,0,1,0-7.86,0A11.88,11.88,0,0,0,20.16,28H9a4,4,0,0,0,0,8V56H43.27A8,8,0,0,0,59,54a7.9,7.9,0,0,0-4-6.9V36A4,4,0,0,0,57.83,34.83ZM27,12a5,5,0,1,1,5,5A5,5,0,0,1,27,12Zm5,7.11A9.9,9.9,0,0,1,41.84,28H22.16A9.9,9.9,0,0,1,32,19.11ZM57,54a6,6,0,0,1-11.94.82A4.889,4.889,0,0,1,45,54a6,6,0,0,1,12,0Zm-4-7.75h-.11a5.878,5.878,0,0,0-.63-.12h-.3A7.768,7.768,0,0,0,51,46a8,8,0,0,0-8,8H11V36H53ZM9,34a2,2,0,0,1,0-4H55a2,2,0,0,1,0,4ZM50,54.59l4.29-4.3,1.42,1.42L50,57.41l-3.71-3.7,1.42-1.42ZM59.28,1H45.72A3.73,3.73,0,0,0,42,4.72V21.08L48.35,16H59.28A3.73,3.73,0,0,0,63,12.28V4.72A3.73,3.73,0,0,0,59.28,1ZM61,12.28A1.72,1.72,0,0,1,59.28,14H47.65L44,16.92V4.72A1.72,1.72,0,0,1,45.72,3H59.28A1.72,1.72,0,0,1,61,4.72h0Z" fill="#666"/>
  </g>
</svg>
