<svg xmlns="http://www.w3.org/2000/svg" width="63.877" height="63.377" viewBox="0 0 63.877 63.377">
  <g id="Group_60" data-name="Group 60" transform="translate(-1.707 -1.972)">
    <g id="Group_59" data-name="Group 59" transform="translate(2.563 2.775)">
      <circle id="Ellipse_20" data-name="Ellipse 20" cx="7.071" cy="7.071" r="7.071" transform="translate(23.988 16.778)" fill="none" stroke="#666" stroke-miterlimit="10" stroke-width="1.5"/>
      <path id="Path_124" data-name="Path 124" d="M55.724,64.375V58.744a1.612,1.612,0,0,0-.589-1.244,1.667,1.667,0,0,0-1.375-.262l-1.244.393A7.777,7.777,0,0,0,46.427,52a9.933,9.933,0,0,1-5.369,1.571A10.1,10.1,0,0,1,35.689,52,7.777,7.777,0,0,0,29.6,57.631l-1.244-.393a1.5,1.5,0,0,0-1.375.262,1.438,1.438,0,0,0-.589,1.244v5.631A2.688,2.688,0,0,0,24.1,67.059V68.3a2.688,2.688,0,0,0,2.292,2.684v5.107a1.557,1.557,0,0,0,1.048,1.44L40.6,81.529a.971.971,0,0,0,.458.065,1.114,1.114,0,0,0,.458-.065l13.16-3.994a1.473,1.473,0,0,0,1.048-1.44V70.988A2.688,2.688,0,0,0,58.016,68.3V67.059A2.688,2.688,0,0,0,55.724,64.375ZM39.552,78.059,29.4,74.981V60.774l10.149,3.077Zm13.16-3.077L42.564,78.059V63.851l10.149-3.077Z" transform="translate(-9.998 -19.77)" fill="none" stroke="#666" stroke-miterlimit="10" stroke-width="1.5"/>
      <path id="Path_125" data-name="Path 125" d="M64.133,22.237l-8.9-5.893V6.065A1.383,1.383,0,0,0,53.853,4.69H49.27A1.383,1.383,0,0,0,47.9,6.065v5.5l-12.44-8.25a3.271,3.271,0,0,0-3.6,0L3.176,22.3a1.364,1.364,0,0,0-.393,1.9l1.964,2.946a1.364,1.364,0,0,0,1.9.393L33.622,9.666,60.663,27.541a1.364,1.364,0,0,0,1.9-.393l1.964-3.012A1.453,1.453,0,0,0,64.133,22.237Z" transform="translate(-2.563 -2.775)" fill="none" stroke="#666" stroke-miterlimit="10" stroke-width="1.5"/>
    </g>
  </g>
</svg>
