<svg xmlns="http://www.w3.org/2000/svg" width="54.579" height="52.8" viewBox="0 0 54.579 52.8">
  <g id="Group_67" data-name="Group 67" transform="translate(-2.4 -2.4)">
    <rect id="Rectangle_40" data-name="Rectangle 40" width="4" height="11" transform="translate(45.689 13.8)" fill="none" stroke="#666" stroke-miterlimit="10" stroke-width="1.2"/>
    <path id="Path_136" data-name="Path 136" d="M32.572,15.007V7.89a.891.891,0,0,0-.89-.89H13.89a.891.891,0,0,0-.89.89v7.117a.891.891,0,0,0,.89.89h5.361a4.4,4.4,0,0,1-.913-2.669,4.448,4.448,0,0,1,8.9,0,4.4,4.4,0,0,1-.913,2.669h5.361A.891.891,0,0,0,32.572,15.007Z" transform="translate(-1.104 -0.441)" fill="none" stroke="#666" stroke-miterlimit="10" stroke-width="1.2"/>
    <path id="Path_137" data-name="Path 137" d="M16.589,17.234H13.007a2.672,2.672,0,0,1-2.669-2.669V7.448a2.672,2.672,0,0,1,2.669-2.669H30.8a2.672,2.672,0,0,1,2.669,2.669v7.117A2.672,2.672,0,0,1,30.8,17.234H27.218a4.405,4.405,0,0,1,.822,1.779H38.807V5.669A2.672,2.672,0,0,0,36.138,3H7.669A2.672,2.672,0,0,0,5,5.669V19.014H15.766A4.407,4.407,0,0,1,16.589,17.234Z" transform="translate(-0.221)" fill="none" stroke="#666" stroke-miterlimit="10" stroke-width="1.2"/>
    <path id="Path_138" data-name="Path 138" d="M19.184,20.779h8.568A2.665,2.665,0,0,0,25.247,19H21.688A2.665,2.665,0,0,0,19.184,20.779Z" transform="translate(-1.786 -1.766)" fill="none" stroke="#666" stroke-miterlimit="10" stroke-width="1.2"/>
    <circle id="Ellipse_24" data-name="Ellipse 24" cx="3" cy="3" r="3" transform="translate(18.689 9.8)" fill="none" stroke="#666" stroke-miterlimit="10" stroke-width="1.2"/>
    <path id="Path_139" data-name="Path 139" d="M57.282,6.914,54.346,3H49.9L46.962,6.914A9.839,9.839,0,0,0,45.047,11.9H59.2A9.836,9.836,0,0,0,57.282,6.914Z" transform="translate(-4.64)" fill="none" stroke="#666" stroke-miterlimit="10" stroke-width="1.2"/>
    <path id="Path_140" data-name="Path 140" d="M49.89,34.779h5.338a.89.89,0,0,0,.89-.89V33H49v.89A.89.89,0,0,0,49.89,34.779Z" transform="translate(-5.076 -3.311)" fill="none" stroke="#666" stroke-miterlimit="10" stroke-width="1.2"/>
    <path id="Path_141" data-name="Path 141" d="M45,41.455H59.234V29H45Zm1.779-10.676H57.455v2.669a2.672,2.672,0,0,1-2.669,2.669H49.448a2.672,2.672,0,0,1-2.669-2.669Z" transform="translate(-4.635 -2.869)" fill="none" stroke="#666" stroke-miterlimit="10" stroke-width="1.2"/>
    <path id="Path_142" data-name="Path 142" d="M37.917,47.91a4.444,4.444,0,0,1,.89.09V23H5V48a4.444,4.444,0,0,1,.89-.09ZM35.248,37.234h1.779v1.779H35.248Zm0,3.559h1.779v1.779H35.248Zm0,3.559h1.779v1.779H35.248ZM6.779,37.234H8.559v1.779H6.779Zm0,3.559H8.559v1.779H6.779Zm0,3.559H8.559v1.779H6.779Z" transform="translate(-0.221 -2.207)" fill="none" stroke="#666" stroke-miterlimit="10" stroke-width="1.2"/>
    <path id="Path_143" data-name="Path 143" d="M37.7,53H5.669A2.672,2.672,0,0,0,3,55.669v4.448H6.559V58.338a1.781,1.781,0,0,1,1.779-1.779H35.027a1.781,1.781,0,0,1,1.779,1.779v1.779h3.559V55.669A2.672,2.672,0,0,0,37.7,53Z" transform="translate(0 -5.518)" fill="none" stroke="#666" stroke-miterlimit="10" stroke-width="1.2"/>
    <path id="Path_144" data-name="Path 144" d="M60.559,16.943V15H58.779v1.943a2.669,2.669,0,1,0,1.779,0Z" transform="translate(-5.959 -1.324)" fill="none" stroke="#666" stroke-miterlimit="10" stroke-width="1.2"/>
  </g>
</svg>
