<svg xmlns="http://www.w3.org/2000/svg" width="51.5" height="54.831" viewBox="0 0 51.5 54.831">
  <g id="Group_61" data-name="Group 61" transform="translate(-12.5 -9.381)">
    <path id="Path_126" data-name="Path 126" d="M19.019,59.5a2.419,2.419,0,1,0,2.419,2.419A2.449,2.449,0,0,0,19.019,59.5Zm0,3.387a1.037,1.037,0,1,1,1.037-1.037A1.063,1.063,0,0,1,19.019,62.887Z" transform="translate(-1.266 -15.473)" fill="#666"/>
    <path id="Path_127" data-name="Path 127" d="M36.519,59.5a2.419,2.419,0,1,0,2.419,2.419A2.449,2.449,0,0,0,36.519,59.5Zm0,3.387a1.037,1.037,0,1,1,1.037-1.037A1.063,1.063,0,0,1,36.519,62.887Z" transform="translate(-6.668 -15.473)" fill="#666"/>
    <path id="Path_128" data-name="Path 128" d="M78.219,59.5a2.419,2.419,0,1,0,2.419,2.419A2.449,2.449,0,0,0,78.219,59.5Zm0,3.387a1.037,1.037,0,1,1,1.037-1.037A1.063,1.063,0,0,1,78.219,62.887Z" transform="translate(-19.542 -15.473)" fill="#666"/>
    <path id="Path_129" data-name="Path 129" d="M57.219,59.5a2.419,2.419,0,1,0,2.419,2.419A2.449,2.449,0,0,0,57.219,59.5Zm0,3.387a1.037,1.037,0,1,1,1.037-1.037A1.063,1.063,0,0,1,57.219,62.887Z" transform="translate(-13.059 -15.473)" fill="#666"/>
    <path id="Path_130" data-name="Path 130" d="M21.487,9.8H14.021c-.83,0-1.521.9-1.521,2.143V61.922c0,1.244.622,2.143,1.521,2.143h7.466c.83,0,1.521-.9,1.521-2.143V11.943C23.007,10.7,22.316,9.8,21.487,9.8Zm-7.6,12.166h7.673v30H13.883Zm7.742-1.383H13.883V17.542h7.673v3.042ZM13.883,53.35h7.673v3.042H13.883Zm.207-42.168h7.258a1.231,1.231,0,0,1,.207.76V16.16H13.883V11.943A1.231,1.231,0,0,1,14.09,11.183Zm7.328,51.5H14.09a1.231,1.231,0,0,1-.207-.76V57.774h7.673v4.148A.957.957,0,0,1,21.417,62.683Z" transform="translate(0 -0.129)" fill="#666"/>
    <path id="Path_131" data-name="Path 131" d="M38.987,9.8H31.521c-.83,0-1.521.9-1.521,2.143V61.922c0,1.244.622,2.143,1.521,2.143h7.466c.83,0,1.521-.9,1.521-2.143V11.943C40.507,10.7,39.885,9.8,38.987,9.8ZM31.452,21.966h7.673v30H31.452Zm7.673-1.383H31.452V17.542h7.673ZM31.452,53.35h7.673v3.042H31.452Zm.207-42.168h7.258a1.231,1.231,0,0,1,.207.76V16.16H31.452V11.943A1.231,1.231,0,0,1,31.659,11.183Zm7.258,51.5H31.659a1.231,1.231,0,0,1-.207-.76V57.774h7.673v4.148A1.231,1.231,0,0,1,38.917,62.683Z" transform="translate(-5.403 -0.129)" fill="#666"/>
    <path id="Path_132" data-name="Path 132" d="M73.236,9.671H65.77a1.461,1.461,0,0,0-1.313,1.106,1.317,1.317,0,0,0-.691-.346L56.438,9.394a1.361,1.361,0,0,0-1.313.622,3.767,3.767,0,0,0-.553,1.313l-6.982,49.5c-.138,1.244.346,2.212,1.175,2.35l7.4,1.037H56.3c.76,0,1.452-.83,1.659-1.936l6.36-44.449V61.793c0,1.244.622,2.143,1.521,2.143H73.3c.83,0,1.521-.9,1.521-2.143V11.814C74.757,10.569,74.065,9.671,73.236,9.671Zm-7.6,12.166H73.3v30H65.632Zm7.742-1.383H65.632V17.413H73.3v3.042ZM65.632,53.221H73.3v3.042H65.632Zm.207-42.168H73.1a1.231,1.231,0,0,1,.207.76V16.03H65.632V11.814A1.231,1.231,0,0,1,65.839,11.053ZM50.147,52.53l7.6,1.106-.415,2.972-7.6-1.106Zm7.811-.346-7.6-1.106,4.217-29.656,7.6,1.106ZM54.779,20.04l.415-2.972,7.6,1.106-.415,2.972Zm1.244-8.5a1.707,1.707,0,0,1,.277-.76l7.189,1.037a1.207,1.207,0,0,1,.069.83l-.622,4.217-7.6-1.106ZM56.23,62.83l-7.189-1.037a1.207,1.207,0,0,1-.069-.83l.622-4.148,7.6,1.106-.622,4.148C56.507,62.484,56.369,62.761,56.23,62.83Zm16.936-.277H65.839a1.231,1.231,0,0,1-.207-.76V57.645H73.3v4.148A.957.957,0,0,1,73.167,62.553Z" transform="translate(-10.826)" fill="#666"/>
  </g>
</svg>
