<svg xmlns="http://www.w3.org/2000/svg" xmlns:xlink="http://www.w3.org/1999/xlink" width="48.075" height="68.584" viewBox="0 0 48.075 68.584">
  <defs>
    <radialGradient id="radial-gradient" cx="0.5" cy="0.5" r="0.5" gradientUnits="objectBoundingBox">
      <stop offset="0.168" stop-color="#f78863"/>
      <stop offset="1" stop-color="#f7bb7d"/>
    </radialGradient>
  </defs>
  <g id="Group_202" data-name="Group 202" transform="translate(-359.884 -119.089)">
    <g id="Group_152" data-name="Group 152" transform="translate(372.558 162.778)">
      <g id="Group_140" data-name="Group 140" transform="translate(0 11.624)">
        <g id="Group_136" data-name="Group 136" transform="translate(4.187)">
          <g id="Group_135" data-name="Group 135">
            <g id="Group_134" data-name="Group 134">
              <path id="Path_227" data-name="Path 227" d="M431.928,355.432l.15,1.15.283,2.146.26,1.989.6,4.587,4.793-.037,0-4.55,0-5.285Z" transform="translate(-431.928 -355.432)" fill="#f7bb7d"/>
            </g>
          </g>
          <path id="Path_228" data-name="Path 228" d="M431.928,355.432l.15,1.15h5.369v2.146h-5.086l.26,1.989h5.4l0-5.285Z" transform="translate(-431.928 -355.432)" fill="#f7bb7d" opacity="0.5" style="mix-blend-mode: multiply;isolation: isolate"/>
        </g>
        <g id="Group_139" data-name="Group 139" transform="translate(0 3.9)">
          <g id="Group_137" data-name="Group 137" transform="translate(4.557)">
            <path id="Path_229" data-name="Path 229" d="M439.478,372.1l-.194,7.218-4.877-.742-.276-1.994-.62-4.482Z" transform="translate(-433.511 -372.095)" fill="#e6f3ff"/>
            <path id="Path_230" data-name="Path 230" d="M441.509,372.095l-.194,7.218-4.877-.742-.276-1.994a1.647,1.647,0,0,1,.468-.241,6.131,6.131,0,0,1,1.807-.2,2.836,2.836,0,0,0,1.72-.5,2.164,2.164,0,0,0,.663-1.917,5.445,5.445,0,0,0-.557-1.626Z" transform="translate(-435.541 -372.095)" fill="#e6f3ff" opacity="0.5" style="mix-blend-mode: multiply;isolation: isolate"/>
          </g>
          <g id="Group_138" data-name="Group 138" transform="translate(0 5.085)">
            <path id="Path_231" data-name="Path 231" d="M424.44,397.5a28.345,28.345,0,0,1-9.967.253.524.524,0,0,1-.419-.389.479.479,0,0,1,.187-.505,48.159,48.159,0,0,1,4.814-2.609c1.858-1.009,2.743.089,2.743.089s.381,1.114,1.1,1.023a2.05,2.05,0,0,0,.945-.489.8.8,0,0,1,.63-.215A6.489,6.489,0,0,1,424.44,397.5Z" transform="translate(-414.039 -393.823)" fill="#541016"/>
            <path id="Path_232" data-name="Path 232" d="M424.487,400.2a28.346,28.346,0,0,1-9.967.253.524.524,0,0,1-.419-.389,1.675,1.675,0,0,1,.747-.122l1.107-.012a38.964,38.964,0,0,0,4.051-.183c.63-.075,1.254-.178,1.872-.314a3.222,3.222,0,0,0,1.47-.611,1.54,1.54,0,0,0,.538-1.252.8.8,0,0,1,.63-.215A6.489,6.489,0,0,1,424.487,400.2Z" transform="translate(-414.086 -396.519)" fill="#541016" opacity="0.5" style="mix-blend-mode: multiply;isolation: isolate"/>
          </g>
        </g>
      </g>
      <g id="Group_147" data-name="Group 147" transform="translate(12.793 11.624)">
        <g id="Group_143" data-name="Group 143" transform="translate(0.394)">
          <g id="Group_142" data-name="Group 142">
            <g id="Group_141" data-name="Group 141">
              <path id="Path_233" data-name="Path 233" d="M470.385,355.432l0,5.285,0,4.55,4.793.037.6-4.587.26-1.989.283-2.146.15-1.15Z" transform="translate(-470.385 -355.432)" fill="#f7bb7d"/>
            </g>
          </g>
          <path id="Path_234" data-name="Path 234" d="M476.329,356.582l.15-1.15h-6.094l0,5.285h5.4l.26-1.989h-5.065v-2.146Z" transform="translate(-470.385 -355.432)" fill="#f7bb7d" opacity="0.5" style="mix-blend-mode: multiply;isolation: isolate"/>
        </g>
        <g id="Group_146" data-name="Group 146" transform="translate(0 3.9)">
          <g id="Group_144" data-name="Group 144" transform="translate(0.072)">
            <path id="Path_235" data-name="Path 235" d="M474.978,372.1,474.4,376.3l-.314,2.27-4.877.742-.194-7.218Z" transform="translate(-469.011 -372.095)" fill="#e6f3ff"/>
            <path id="Path_236" data-name="Path 236" d="M474.4,376.3l-.314,2.27-4.877.742-.194-7.218h1.858a5.317,5.317,0,0,0-.557,1.626,2.157,2.157,0,0,0,.66,1.917,2.837,2.837,0,0,0,1.72.5A6.8,6.8,0,0,1,474.4,376.3Z" transform="translate(-469.011 -372.095)" fill="#e6f3ff" opacity="0.5" style="mix-blend-mode: multiply;isolation: isolate"/>
          </g>
          <g id="Group_145" data-name="Group 145" transform="translate(0 5.085)">
            <path id="Path_237" data-name="Path 237" d="M479.261,397.365a.524.524,0,0,1-.419.389,28.346,28.346,0,0,1-9.968-.253,6.449,6.449,0,0,1-.028-2.844.811.811,0,0,1,.632.215,2.041,2.041,0,0,0,.943.489c.711.091,1.093-1.023,1.093-1.023s.885-1.1,2.745-.089a48.171,48.171,0,0,1,4.814,2.609A.479.479,0,0,1,479.261,397.365Z" transform="translate(-468.702 -393.823)" fill="#541016"/>
            <path id="Path_238" data-name="Path 238" d="M479.261,400.061a.524.524,0,0,1-.419.389,28.347,28.347,0,0,1-9.968-.253,6.449,6.449,0,0,1-.028-2.843.811.811,0,0,1,.632.215,1.537,1.537,0,0,0,.538,1.252,3.221,3.221,0,0,0,1.47.611c.618.136,1.243.239,1.87.314a39.064,39.064,0,0,0,4.053.183l1.107.012A1.665,1.665,0,0,1,479.261,400.061Z" transform="translate(-468.702 -396.519)" fill="#541016" opacity="0.5" style="mix-blend-mode: multiply;isolation: isolate"/>
          </g>
        </g>
      </g>
      <g id="Group_151" data-name="Group 151" transform="translate(2.738)">
        <path id="Path_239" data-name="Path 239" d="M443.765,308.632c0,.931-.9,7.033-1.2,8.992-.059.379-.091.6-.091.6h-6.494v-5.792h-2.457v5.792h-6.553s-1.17-8.25-1.229-9.069a22.033,22.033,0,0,1,.41-3.276l1.477-.009,13.228-.091,2.322-.016A11.886,11.886,0,0,1,443.765,308.632Z" transform="translate(-425.739 -305.765)" fill="#3c889f"/>
        <g id="Group_150" data-name="Group 150">
          <g id="Group_148" data-name="Group 148">
            <path id="Path_240" data-name="Path 240" d="M431.731,312.944l1.8-.07v5.706h-6.553s-1.17-8.25-1.229-9.069a22.033,22.033,0,0,1,.41-3.276l1.477-.009,0,.009a16.073,16.073,0,0,0-.585,4.407,13.162,13.162,0,0,0,1.133,4.526c.428.585-.274,2.612-.274,2.612l5.266.234-.04-4.835Z" transform="translate(-425.739 -306.117)" fill="#3c889f" opacity="0.5" style="mix-blend-mode: multiply;isolation: isolate"/>
            <path id="Path_241" data-name="Path 241" d="M475.438,339.2c-.059.379-.091.6-.091.6h-6.494v-5.792h-.2l2-.077-1.093.74.077,4.526Z" transform="translate(-458.608 -327.342)" fill="#3c889f" opacity="0.5" style="mix-blend-mode: multiply;isolation: isolate"/>
            <path id="Path_242" data-name="Path 242" d="M493.248,308.632c0,.931-.9,7.033-1.2,8.992-.059.379-.091.6-.091.6H490.8c1.1-3.4.07-9.724-.461-12.446l2.322-.016A11.886,11.886,0,0,1,493.248,308.632Z" transform="translate(-475.222 -305.765)" fill="#3c889f" opacity="0.5" style="mix-blend-mode: screen;isolation: isolate"/>
          </g>
          <g id="Group_149" data-name="Group 149" transform="translate(0.488 1.365)">
            <path id="Path_243" data-name="Path 243" d="M454.177,333.881a20.818,20.818,0,0,1,2.343-.059,20.575,20.575,0,0,1,2.337.176,20.564,20.564,0,0,1-2.343.058A20.784,20.784,0,0,1,454.177,333.881Z" transform="translate(-448.009 -328.616)" fill="#0a303b"/>
            <path id="Path_244" data-name="Path 244" d="M428.257,312.1c-.062.454-.13.906-.178,1.361-.027.227-.053.453-.07.68-.008.113-.016.226-.019.339s.005.219.016.333c.092.9.214,1.813.34,2.718l.347,2.722.162,1.363c.046.455.1.91.142,1.367-.093-.449-.171-.9-.256-1.35l-.227-1.355c-.147-.9-.272-1.81-.4-2.717-.107-.91-.232-1.816-.287-2.737-.006-.114-.006-.238,0-.353s.022-.231.036-.345c.029-.229.064-.456.1-.682C428.053,312.992,428.143,312.543,428.257,312.1Z" transform="translate(-427.823 -311.982)" fill="#0a303b"/>
            <path id="Path_245" data-name="Path 245" d="M496.369,311.6a7.131,7.131,0,0,1,.362,2.747c-.083.922-.212,1.835-.325,2.751-.134.913-.262,1.826-.411,2.737l-.229,1.365c-.085.454-.162.909-.255,1.361.04-.46.1-.918.142-1.377l.164-1.374.357-2.743c.133-.912.259-1.826.379-2.738a5.047,5.047,0,0,0,.018-1.363C496.529,312.508,496.453,312.053,496.369,311.6Z" transform="translate(-479.67 -311.599)" fill="#0a303b"/>
          </g>
        </g>
      </g>
    </g>
    <g id="Group_176" data-name="Group 176" transform="translate(359.884 140.586)">
      <path id="Path_246" data-name="Path 246" d="M421.951,253.884a4.157,4.157,0,0,1-2.457-.878c-.761-.819,1.4-15.154,2.633-15.68,1.076-.461,10.633-.608,13.856-.205a1.529,1.529,0,0,1,1.247,1.006,45.5,45.5,0,0,1,2.581,13.3,2.6,2.6,0,0,1-2.168,2.635C434.169,254.654,427.19,255.489,421.951,253.884Z" transform="translate(-405.422 -230.814)" fill="#f8cc45"/>
      <g id="Group_168" data-name="Group 168" transform="translate(0 0)">
        <g id="Group_162" data-name="Group 162">
          <g id="Group_158" data-name="Group 158">
            <g id="Group_153" data-name="Group 153" transform="translate(35.109)">
              <path id="Path_247" data-name="Path 247" d="M521.255,213.185s1.482-.838,1.417-1.124-1.656.169-1.656.169,1.17-.888,1.011-1.165-2.092.8-2.092.8.122-.845-.206-.915-1.6,2.018-1.6,2.018l-5.94,2.546-2.286.98c.3.746.521,1.52.754,2.29.294.685.6,1.366.935,2.033l.408-.283c2.305-1.613,4.575-3.279,6.82-4.976l.171-.129c.014-.009.232-.165.248-.187l0,0a17.222,17.222,0,0,0,2.907-.751c.439-.291-.905-.445-.905-.445a6.337,6.337,0,0,0,1.618-.713C522.977,213.1,521.814,213,521.255,213.185Z" transform="translate(-509.903 -210.944)" fill="#f7bb7d"/>
              <path id="Path_248" data-name="Path 248" d="M510.657,233.725c.294.685.6,1.366.935,2.033l.408-.283c2.305-1.612,4.575-3.279,6.82-4.976-1.318.484-5.287,1.746-6.63-.044l-2.286.98C510.207,232.181,510.424,232.955,510.657,233.725Z" transform="translate(-509.903 -225.889)" fill="#f7bb7d" opacity="0.5" style="mix-blend-mode: multiply;isolation: isolate"/>
            </g>
            <g id="Group_154" data-name="Group 154" transform="translate(0 2.548)">
              <path id="Path_249" data-name="Path 249" d="M372.593,228.643c.245-.953.44-1.92.726-2.856l-1.518-.381-7.288-1.83h0c-.008-.01-1.587-1.86-1.9-1.739s-.059.936-.059.936-2.079-.752-2.191-.454,1.183.99,1.183.99-1.644-.2-1.662.1,1.577.886,1.577.886c-.581-.1-1.715.187-1.564.4a6.345,6.345,0,0,0,1.711.447s-1.3.365-.824.583a17.23,17.23,0,0,0,2.99.281h0l0,0,.009.007c.049.033.253.129.264.138,2.549,1.353,5.116,2.675,7.714,3.932l.381.184C372.286,229.718,372.456,229.179,372.593,228.643Z" transform="translate(-359.884 -221.832)" fill="#f7bb7d"/>
              <path id="Path_250" data-name="Path 250" d="M385.337,240.342c.245-.953.44-1.92.725-2.856l-1.518-.381c-.414.744-1.549,2.553-2.759,2.436a21.234,21.234,0,0,1-4.423-1.477c-.351-.15-.618-.267-.751-.325-.049-.023-.08-.035-.089-.04l.009.007c.049.033.253.129.264.138,2.549,1.353,5.116,2.675,7.714,3.932l.381.184C385.029,241.417,385.2,240.878,385.337,240.342Z" transform="translate(-372.627 -233.531)" fill="#f7bb7d" opacity="0.5" style="mix-blend-mode: multiply;isolation: isolate"/>
            </g>
            <g id="Group_157" data-name="Group 157" transform="translate(10.327 4.873)">
              <g id="Group_156" data-name="Group 156">
                <path id="Path_251" data-name="Path 251" d="M426.712,239.956l.293,9.888s-9.6,3.218-17.728,0l.117-10.063-5.383-2.574,2.282-4.271.4.091,6.214,1.43,1.112-.351s1.989,2.516,4.271,2.34,4.1-2.516,4.1-2.516l1.4.468,5.909-2.633,1.675,4.241.2.5Z" transform="translate(-404.011 -231.765)" fill="#541016"/>
                <g id="Group_155" data-name="Group 155" transform="translate(0 1.17)">
                  <path id="Path_252" data-name="Path 252" d="M426.712,243.786l.293,9.888s-9.6,3.218-17.728,0l.117-10.063-5.383-2.574,2.282-4.271.4.091-1.587,3.693,4.33,2.535.468-.976-.04,1.17.662-.154-.779.662.976,8.034,15.367-.545.2-7.683-.431-.859.859.585.04-.976.623.665,4-3.171.2.5Z" transform="translate(-404.011 -236.765)" fill="#541016" opacity="0.5" style="mix-blend-mode: multiply;isolation: isolate"/>
                  <path id="Path_253" data-name="Path 253" d="M442.511,242.971a27.617,27.617,0,0,0,2.769,3.354l1.248-1.365,1.171.8,1.145-.8,1.429,1.56,2.34-3.588-1.482,4.525-2.418-1.677-1.014.546-1.209-.78-1.716,1.833Z" transform="translate(-433.501 -241.489)" fill="#541016" opacity="0.5" style="mix-blend-mode: multiply;isolation: isolate"/>
                </g>
              </g>
              <path id="Path_254" data-name="Path 254" d="M461.378,257.637a2.411,2.411,0,0,1-1.863.922,2.681,2.681,0,0,1-1.985-.938,29.325,29.325,0,0,1,.924-2.954,1.972,1.972,0,0,1-.016-2.069l.051-.087.714.489.866-.615.2.318a1.981,1.981,0,0,1,.154,1.8A17.018,17.018,0,0,1,461.378,257.637Z" transform="translate(-445.005 -247.559)" fill="#e6f3ff"/>
            </g>
          </g>
          <g id="Group_161" data-name="Group 161" transform="translate(15.476 7.038)">
            <path id="Path_255" data-name="Path 255" d="M444.031,257.028s-.456.225-1.264.522c-2.8,1.034-9.85,2.961-16.757-.522l.077-9.09a2.132,2.132,0,0,0,1.283.185c2.448-.51,2.151-6.658,2.151-6.658l.391-.08.955-.194s.407,5.481,2.521,7.721a2.681,2.681,0,0,0,1.985.938,2.411,2.411,0,0,0,1.863-.922c1.961-2.263,2-7.913,2-7.913l1.444.293s.028.138.082.37v0c.255,1.128,1.1,4.515,2.247,5.551a.909.909,0,0,0,.868.278l.133,8.077Z" transform="translate(-426.011 -241.015)" fill="#35ae78"/>
            <g id="Group_160" data-name="Group 160">
              <g id="Group_159" data-name="Group 159">
                <path id="Path_256" data-name="Path 256" d="M444.031,279.685s-.456.225-1.264.522c-2.8,1.034-9.85,2.961-16.757-.522l.077-9.09a2.132,2.132,0,0,0,1.283.185c-.082,2.811.007,8.128,1.84,8.357,2.221.279,9.446.648,13.6-.482a8.912,8.912,0,0,0,1.2-.412Z" transform="translate(-426.011 -263.672)" fill="#35ae78" opacity="0.5" style="mix-blend-mode: multiply;isolation: isolate"/>
                <path id="Path_257" data-name="Path 257" d="M453.528,241.677v0c-.358,3-1.517,8.629-5.193,9.029-4.177.452-5.371-6.836-5.654-9.324l.955-.194s.407,5.481,2.521,7.721a2.681,2.681,0,0,0,1.985.938,2.411,2.411,0,0,0,1.863-.922c1.961-2.263,2-7.913,2-7.913l1.444.293S453.475,241.446,453.528,241.677Z" transform="translate(-438.78 -241.015)" fill="#35ae78" opacity="0.5" style="mix-blend-mode: screen;isolation: isolate"/>
                <path id="Path_258" data-name="Path 258" d="M464.2,286.627a5.035,5.035,0,0,1-5.188-2.028Z" transform="translate(-451.288 -274.399)" fill="#35ae78" opacity="0.5" style="mix-blend-mode: screen;isolation: isolate"/>
                <path id="Path_259" data-name="Path 259" d="M498.875,277.372s-.456.225-1.264.522l.037-1.552.2-8.767a.909.909,0,0,0,.868.279l.133,8.076Z" transform="translate(-480.854 -261.359)" fill="#35ae78" opacity="0.5" style="mix-blend-mode: screen;isolation: isolate"/>
              </g>
              <path id="Path_260" data-name="Path 260" d="M427.011,308.1c.71.239,1.432.437,2.16.6.365.082.73.162,1.1.235s.734.136,1.1.19l1.109.152,1.114.114c.744.045,1.489.1,2.235.085l.559.007c.186,0,.372-.013.559-.019.372-.018.745-.027,1.117-.051.741-.082,1.487-.133,2.221-.269a28.515,28.515,0,0,0,4.356-1.049l-1.059.378-.531.187c-.176.066-.361.1-.541.156l-1.09.285c-.364.093-.737.146-1.1.22-.735.165-1.488.211-2.234.3-.375.028-.751.041-1.126.063-.188.008-.375.024-.564.025l-.564,0a26.061,26.061,0,0,1-4.486-.408A21.875,21.875,0,0,1,427.011,308.1Z" transform="translate(-426.777 -292.399)" fill="#186944"/>
            </g>
          </g>
        </g>
        <g id="Group_167" data-name="Group 167" transform="translate(19.766 4.507)">
          <g id="Group_163" data-name="Group 163" transform="translate(0.638)">
            <path id="Path_261" data-name="Path 261" d="M455.2,232.946a8.986,8.986,0,0,1-.143-2.745h-7.782a8.613,8.613,0,0,1-.209,2.985,1.186,1.186,0,0,1,.538,1.176l1.015.4a1.062,1.062,0,0,1,1.028-.661,1.144,1.144,0,0,1,1.092,1.491l.527.206.284-.116a1.125,1.125,0,0,1,1.12-1.327,1.062,1.062,0,0,1,.936.486l.937-.383A1.192,1.192,0,0,1,455.2,232.946Z" transform="translate(-447.065 -230.201)" fill="#f7bb7d"/>
            <path id="Path_262" data-name="Path 262" d="M455.782,233.34a11.891,11.891,0,0,1-4,.527,13.608,13.608,0,0,1-3.761-.6,10.134,10.134,0,0,0,.019-1.36,13.6,13.6,0,0,0,3.742.594,11.864,11.864,0,0,0,3.972-.517A9.5,9.5,0,0,0,455.782,233.34Z" transform="translate(-447.797 -231.506)" fill="#ed8e6b"/>
          </g>
          <g id="Group_166" data-name="Group 166" transform="translate(0 1.447)">
            <g id="Group_164" data-name="Group 164">
              <path id="Path_263" data-name="Path 263" d="M449.1,240.74v0l-.714-.489-.456-.311-1.327,1.17c-1.4-.506-2.263-3.276-2.263-3.276l.878-1.453-.019.791s3.159,1.013,3.51,1.21c.2.112.3.889.351,1.521C449.092,240.333,449.1,240.7,449.1,240.74Z" transform="translate(-444.341 -236.385)" fill="#541016"/>
              <path id="Path_264" data-name="Path 264" d="M459.677,247.833l.517-1.151.654,1.95Z" transform="translate(-456.088 -244.272)" fill="#330a0d"/>
            </g>
            <g id="Group_165" data-name="Group 165" transform="translate(4.76 0.002)">
              <path id="Path_265" data-name="Path 265" d="M469.394,237.846s-.857,2.771-2.261,3.276l-1.327-1.17-.26.185-.866.615v0c0-.042,0-.407.026-.84.033-.63.117-1.4.321-1.514.351-.2,3.511-1.21,3.511-1.21l-.019-.789Z" transform="translate(-464.681 -236.395)" fill="#541016"/>
              <path id="Path_266" data-name="Path 266" d="M465.826,247.833l-.517-1.151-.628,1.95Z" transform="translate(-464.681 -244.275)" fill="#330a0d"/>
            </g>
          </g>
        </g>
      </g>
      <g id="Group_175" data-name="Group 175" transform="translate(15.111 6.901)">
        <g id="Group_171" data-name="Group 171" transform="translate(0 0.283)">
          <g id="Group_169" data-name="Group 169" transform="translate(0.979)">
            <path id="Path_267" data-name="Path 267" d="M430.45,241.669s-.439,8.952-1.814,11.087a5.529,5.529,0,0,0,2.662.878c1.658.065,1.024-11.994,1.024-11.994Z" transform="translate(-428.636 -241.64)" fill="#f8cc45"/>
          </g>
          <g id="Group_170" data-name="Group 170" transform="translate(0 11.078)">
            <path id="Path_268" data-name="Path 268" d="M424.538,292.784l-.085-.46c1.865-.346,2.381-3.318,2.386-3.348l.462.077C427.278,289.189,426.722,292.379,424.538,292.784Z" transform="translate(-424.453 -288.976)" fill="#f8cc45"/>
          </g>
        </g>
        <g id="Group_174" data-name="Group 174" transform="translate(14.143)">
          <g id="Group_172" data-name="Group 172">
            <path id="Path_269" data-name="Path 269" d="M486.9,240.432s.411,9.264,1.786,11.4a5.529,5.529,0,0,1-2.662.878c-1.658.065-1.024-11.994-1.024-11.994Z" transform="translate(-484.885 -240.432)" fill="#f8cc45"/>
          </g>
          <g id="Group_173" data-name="Group 173" transform="translate(1.936 11.361)">
            <path id="Path_270" data-name="Path 270" d="M495.921,292.784c-2.184-.406-2.74-3.6-2.763-3.732l.462-.077c0,.03.525,3,2.386,3.348Z" transform="translate(-493.158 -288.975)" fill="#f8cc45"/>
          </g>
        </g>
      </g>
    </g>
    <g id="Group_201" data-name="Group 201" transform="translate(369.528 119.089)">
      <g id="Group_196" data-name="Group 196" transform="translate(0 3.829)">
        <g id="Group_179" data-name="Group 179">
          <path id="Path_271" data-name="Path 271" d="M429.643,145.417a2.168,2.168,0,0,0-2.267.407,15.776,15.776,0,0,0-.513-4.462c-1.636-5.852-10.845-5.912-10.845-5.912s-10-.06-11.147,6.151a21.507,21.507,0,0,0-.347,4.222,2.167,2.167,0,0,0-2.266-.407c-2.12.8-1.6,7.376,3.639,7.047,1.542,3.375,4.562,6.007,9.939,6.156a10.111,10.111,0,0,0,10.1-6.162C431.237,152.851,431.772,146.222,429.643,145.417Z" transform="translate(-401.092 -135.451)" fill="#f7bb7d"/>
          <g id="Group_178" data-name="Group 178" transform="translate(0.001 4.593)">
            <path id="Path_272" data-name="Path 272" d="M425.936,190.944a10.113,10.113,0,0,1-10.1,6.16c-5.376-.147-8.395-2.78-9.937-6.155a4.454,4.454,0,0,1-4.76-5.252,4.309,4.309,0,0,0,4.76,3.925c1.542,3.375,4.561,6.008,9.937,6.157a10.115,10.115,0,0,0,10.1-6.162,4.312,4.312,0,0,0,4.828-3.922A4.455,4.455,0,0,1,425.936,190.944Z" transform="translate(-401.094 -178.529)" fill="#f7bb7d" opacity="0.5" style="mix-blend-mode: screen;isolation: isolate"/>
            <g id="Group_177" data-name="Group 177" transform="translate(2.007)" opacity="0.5" style="mix-blend-mode: multiply;isolation: isolate">
              <path id="Path_273" data-name="Path 273" d="M430.211,155.075c-.026.243-.047.529-.056.847a14.916,14.916,0,0,1-3.894,1.268,29.41,29.41,0,0,1-11.245.026,7.458,7.458,0,0,1-2.1,5.352l-.023.105-.4,1.847s-.943-1.7-1.545-2.965c-.051-.037-.1-.073-.159-.108a2.19,2.19,0,0,0-.868-.323c-.08-.257-.164-.541-.244-.833a2.1,2.1,0,0,1,.59.094c.03.012.063.021.094.033a.038.038,0,0,1,.021.007c.054.021.108.044.159.068.03.014.058.03.089.044s.056.03.084.047.049.028.075.044c.056.035.108.07.159.108v0c.6,1.268,1.545,2.963,1.545,2.963l.4-1.846.023-.105a7.458,7.458,0,0,0,2.1-5.352,29.409,29.409,0,0,0,11.245-.026A14.876,14.876,0,0,0,430.211,155.075Z" transform="translate(-409.67 -155.075)" fill="#f7bb7d"/>
              <path id="Path_274" data-name="Path 274" d="M502.294,165.413c-.016.07-.035.14-.054.208-.063.222-.134.435-.211.644a2.262,2.262,0,0,0-.719.29c-.063.136-.131.279-.2.424v0c-.594,1.219-1.395,2.656-1.395,2.656l-.428-1.952a7.732,7.732,0,0,1-2.1-5.93,7.382,7.382,0,0,0,2.1,5.111l.428,1.952s.8-1.437,1.395-2.656v0c.07-.143.136-.286.2-.419l.07-.042c.033-.019.063-.037.1-.056l.087-.042c.03-.014.059-.026.089-.037.051-.023.105-.042.159-.061.033-.009.066-.019.1-.026s.063-.016.094-.023A1.667,1.667,0,0,1,502.294,165.413Z" transform="translate(-476.7 -160.192)" fill="#f7bb7d"/>
            </g>
          </g>
        </g>
        <g id="Group_195" data-name="Group 195" transform="translate(0.847 6.92)">
          <g id="Group_180" data-name="Group 180" transform="translate(5.957 7.941)" opacity="0.53">
            <circle id="Ellipse_32" data-name="Ellipse 32" cx="2.165" cy="2.165" r="2.165" fill="url(#radial-gradient)"/>
            <circle id="Ellipse_33" data-name="Ellipse 33" cx="2.165" cy="2.165" r="2.165" transform="translate(11.78)" fill="url(#radial-gradient)"/>
          </g>
          <g id="Group_189" data-name="Group 189" transform="translate(6.648 2.714)">
            <g id="Group_184" data-name="Group 184" transform="translate(9.269)">
              <path id="Path_275" data-name="Path 275" d="M478.2,179.517a2.4,2.4,0,0,1-2.4,2.4c-1.325,0-2.964-.8-2.964-2.121a3.191,3.191,0,0,1,2.964-2.677A2.4,2.4,0,0,1,478.2,179.517Z" transform="translate(-472.812 -177)" fill="#fff"/>
              <path id="Path_276" data-name="Path 276" d="M472.84,179.932a1.386,1.386,0,0,1-.115-.64,2.007,2.007,0,0,1,.13-.649,3.235,3.235,0,0,1,.755-1.083,3.571,3.571,0,0,1,1.108-.73,2.512,2.512,0,0,1,1.327-.193,2.457,2.457,0,0,1,2.082,2.942,2.355,2.355,0,0,1-.617,1.141,2.417,2.417,0,0,0,.367-2.4,2.314,2.314,0,0,0-3.073-1.282,3.613,3.613,0,0,0-1.067.658,3.085,3.085,0,0,0-.772.99A1.77,1.77,0,0,0,472.84,179.932Z" transform="translate(-472.722 -176.613)" fill="#784324"/>
              <g id="Group_183" data-name="Group 183" transform="translate(1.063 0.536)">
                <g id="Group_182" data-name="Group 182">
                  <path id="Path_277" data-name="Path 277" d="M480.655,180.6a1.7,1.7,0,0,1-3.031,1.044,1.679,1.679,0,0,1-.36-1.044,1.485,1.485,0,0,1,.023-.271,1.695,1.695,0,0,1,1.671-1.423,1.691,1.691,0,0,1,1.648,1.3A1.561,1.561,0,0,1,480.655,180.6Z" transform="translate(-477.264 -178.901)" fill="#784324"/>
                  <g id="Group_181" data-name="Group 181" transform="translate(0.023 0.44)">
                    <path id="Path_278" data-name="Path 278" d="M478.958,181.963l-1.594-.2a1.67,1.67,0,0,1,.534-.983Z" transform="translate(-477.364 -180.781)" fill="#96542d"/>
                    <path id="Path_279" data-name="Path 279" d="M480.061,185.831l-.112,1.755a1.688,1.688,0,0,1-1.144-.639Z" transform="translate(-478.467 -184.649)" fill="#96542d"/>
                  </g>
                </g>
                <path id="Path_280" data-name="Path 280" d="M482.409,183.117a.923.923,0,1,1-.923-.923A.923.923,0,0,1,482.409,183.117Z" transform="translate(-479.79 -181.423)" fill="#361e10"/>
                <path id="Path_281" data-name="Path 281" d="M487.773,186.778a.258.258,0,1,1-.258-.258A.258.258,0,0,1,487.773,186.778Z" transform="translate(-484.918 -184.737)" fill="#fff"/>
              </g>
            </g>
            <g id="Group_188" data-name="Group 188">
              <path id="Path_282" data-name="Path 282" d="M433.407,179.517a2.4,2.4,0,0,0,2.4,2.4c1.325,0,2.964-.8,2.964-2.121a3.191,3.191,0,0,0-2.964-2.677A2.4,2.4,0,0,0,433.407,179.517Z" transform="translate(-433.339 -177)" fill="#fff"/>
              <path id="Path_283" data-name="Path 283" d="M438.458,179.932a1.77,1.77,0,0,0-.126-1.241,3.081,3.081,0,0,0-.772-.99,3.616,3.616,0,0,0-1.066-.658,2.314,2.314,0,0,0-3.073,1.282,2.418,2.418,0,0,0,.367,2.4,2.356,2.356,0,0,1-.617-1.141,2.457,2.457,0,0,1,2.082-2.942,2.512,2.512,0,0,1,1.327.193,3.576,3.576,0,0,1,1.109.73,3.239,3.239,0,0,1,.755,1.083,2.008,2.008,0,0,1,.129.649A1.383,1.383,0,0,1,438.458,179.932Z" transform="translate(-433.117 -176.613)" fill="#784324"/>
              <g id="Group_187" data-name="Group 187" transform="translate(1.204 0.653)">
                <g id="Group_186" data-name="Group 186">
                  <path id="Path_284" data-name="Path 284" d="M441.655,181.1a1.7,1.7,0,0,1-3.031,1.044,1.679,1.679,0,0,1-.36-1.044,1.483,1.483,0,0,1,.023-.271,1.695,1.695,0,0,1,1.671-1.423,1.691,1.691,0,0,1,1.648,1.3A1.56,1.56,0,0,1,441.655,181.1Z" transform="translate(-438.264 -179.401)" fill="#784324"/>
                  <g id="Group_185" data-name="Group 185" transform="translate(0.023 0.44)">
                    <path id="Path_285" data-name="Path 285" d="M439.958,182.463l-1.594-.2a1.67,1.67,0,0,1,.534-.983Z" transform="translate(-438.364 -181.281)" fill="#96542d"/>
                    <path id="Path_286" data-name="Path 286" d="M441.061,186.331l-.112,1.755a1.688,1.688,0,0,1-1.144-.639Z" transform="translate(-439.467 -185.149)" fill="#96542d"/>
                  </g>
                </g>
                <path id="Path_287" data-name="Path 287" d="M443.409,183.617a.923.923,0,1,1-.923-.923A.923.923,0,0,1,443.409,183.617Z" transform="translate(-440.79 -181.923)" fill="#361e10"/>
                <path id="Path_288" data-name="Path 288" d="M448.773,187.278a.258.258,0,1,1-.258-.258A.258.258,0,0,1,448.773,187.278Z" transform="translate(-445.918 -185.237)" fill="#fff"/>
              </g>
            </g>
          </g>
          <g id="Group_190" data-name="Group 190" transform="translate(6.769)">
            <path id="Path_289" data-name="Path 289" d="M486.061,166.032a1.62,1.62,0,0,0,.631.607,1.867,1.867,0,0,0,.7.307.734.734,0,0,0,.694-.238.724.724,0,0,0,.026-.749,1.685,1.685,0,0,0-.538-.568,1.881,1.881,0,0,0-.693-.349C486.233,164.9,485.755,165.4,486.061,166.032Z" transform="translate(-473.718 -165.018)" fill="#784324"/>
            <path id="Path_290" data-name="Path 290" d="M435.776,166.032a1.618,1.618,0,0,1-.631.607,1.864,1.864,0,0,1-.7.307.734.734,0,0,1-.694-.238.724.724,0,0,1-.026-.749,1.681,1.681,0,0,1,.539-.568,1.879,1.879,0,0,1,.693-.349C435.6,164.9,436.083,165.4,435.776,166.032Z" transform="translate(-433.633 -165.018)" fill="#784324"/>
          </g>
          <path id="Path_291" data-name="Path 291" d="M459.675,194.408a1.5,1.5,0,0,1-.413-.4.583.583,0,0,1-.1-.3.394.394,0,0,1,.034-.17.7.7,0,0,1,.1-.138,1.214,1.214,0,0,1,.558-.243l.288-.041.286-.019a2.767,2.767,0,0,1,.289,0,1.688,1.688,0,0,1,.291.025.977.977,0,0,1,.566.237.489.489,0,0,1,.1.144.449.449,0,0,1,.022.17.631.631,0,0,1-.1.294,1.144,1.144,0,0,1-.42.39,1.28,1.28,0,0,0,.318-.443c.068-.161.08-.34-.043-.425a.877.877,0,0,0-.468-.148,1.812,1.812,0,0,0-.268-.016,2.663,2.663,0,0,0-.273,0l-.275.013-.269.031a1.163,1.163,0,0,0-.477.162.318.318,0,0,0-.059.415A1.794,1.794,0,0,0,459.675,194.408Z" transform="translate(-446.419 -186.525)" fill="#7a252d"/>
          <g id="Group_193" data-name="Group 193" transform="translate(0 4.243)">
            <g id="Group_191" data-name="Group 191">
              <path id="Path_292" data-name="Path 292" d="M404.835,185.168a2.333,2.333,0,0,1-.118-.918,1.6,1.6,0,0,1,.118-.464,1.173,1.173,0,0,1,.294-.392,1.464,1.464,0,0,1,.2-.143,1.5,1.5,0,0,1,.242-.084,1.252,1.252,0,0,1,.5.012,1.917,1.917,0,0,1,.848.458,3.027,3.027,0,0,1,.9,1.638c.02.155.052.309.062.465s.021.311.01.466-.022.309-.046.462-.058.3-.091.452a5.2,5.2,0,0,0-.111-1.8c-.047-.141-.09-.284-.143-.422a3.053,3.053,0,0,0-.2-.4,2.586,2.586,0,0,0-.545-.684,1.73,1.73,0,0,0-.743-.418.858.858,0,0,0-.782.14,1.008,1.008,0,0,0-.275.318,1.536,1.536,0,0,0-.137.414A2.583,2.583,0,0,0,404.835,185.168Z" transform="translate(-404.711 -183.147)" fill="#ed8e6b"/>
              <path id="Path_293" data-name="Path 293" d="M411.482,191.881a3.808,3.808,0,0,1-.458-.8,2.724,2.724,0,0,1-.231-.911,1.126,1.126,0,0,1,.081-.494.668.668,0,0,1,.376-.355,1.368,1.368,0,0,1,.933.064,1.793,1.793,0,0,0-.859.1.651.651,0,0,0-.3.674,3.7,3.7,0,0,0,.168.859Q411.327,191.449,411.482,191.881Z" transform="translate(-409.369 -187.831)" fill="#ed8e6b"/>
            </g>
            <g id="Group_192" data-name="Group 192" transform="translate(24.834)">
              <path id="Path_294" data-name="Path 294" d="M513.891,185.168a2.576,2.576,0,0,0,.005-.9,1.541,1.541,0,0,0-.137-.414,1.007,1.007,0,0,0-.275-.318.858.858,0,0,0-.782-.14,1.73,1.73,0,0,0-.743.418,2.581,2.581,0,0,0-.545.684,3.066,3.066,0,0,0-.2.4c-.054.138-.1.281-.143.422a5.2,5.2,0,0,0-.11,1.8c-.033-.15-.063-.3-.091-.452s-.03-.307-.046-.462.007-.31.01-.466.042-.309.062-.465a3.027,3.027,0,0,1,.9-1.638,1.915,1.915,0,0,1,.847-.458,1.252,1.252,0,0,1,.5-.012,1.5,1.5,0,0,1,.242.084,1.474,1.474,0,0,1,.2.143,1.169,1.169,0,0,1,.294.392,1.605,1.605,0,0,1,.118.464A2.338,2.338,0,0,1,513.891,185.168Z" transform="translate(-510.826 -183.147)" fill="#ed8e6b"/>
              <path id="Path_295" data-name="Path 295" d="M513.127,191.881q.156-.432.287-.861a3.711,3.711,0,0,0,.168-.859.651.651,0,0,0-.3-.674,1.793,1.793,0,0,0-.859-.1,1.367,1.367,0,0,1,.933-.064.67.67,0,0,1,.376.355,1.131,1.131,0,0,1,.081.494,2.722,2.722,0,0,1-.231.911A3.8,3.8,0,0,1,513.127,191.881Z" transform="translate(-512.051 -187.831)" fill="#ed8e6b"/>
            </g>
          </g>
          <g id="Group_194" data-name="Group 194" transform="translate(11.359 9.151)">
            <path id="Path_296" data-name="Path 296" d="M453.248,204.118a7.188,7.188,0,0,0,1.305.473,5.849,5.849,0,0,0,1.356.185,4.487,4.487,0,0,0,1.353-.157,6.322,6.322,0,0,0,1.291-.5,4.07,4.07,0,0,1-1.239.675,4.446,4.446,0,0,1-.694.175,5.257,5.257,0,0,1-.715.041,4.706,4.706,0,0,1-1.4-.244A4.435,4.435,0,0,1,453.248,204.118Z" transform="translate(-453.248 -204.118)" fill="#7a252d"/>
            <path id="Path_297" data-name="Path 297" d="M460.433,210.388c.158.015.306.029.454.038s.293.017.438.013.29-.005.437-.017.3-.029.456-.035a1.472,1.472,0,0,1-.892.285,1.625,1.625,0,0,1-.471-.068A1.127,1.127,0,0,1,460.433,210.388Z" transform="translate(-458.751 -208.921)" fill="#7a252d"/>
          </g>
        </g>
      </g>
      <g id="Group_200" data-name="Group 200" transform="translate(1.477 0)">
        <g id="Group_197" data-name="Group 197">
          <path id="Path_298" data-name="Path 298" d="M433.691,131.085a7.493,7.493,0,0,1-.217,1.037c-.063.222-.134.435-.211.644a2.262,2.262,0,0,0-.718.29c-.063.136-.131.279-.2.424v0c-.594,1.219-1.395,2.656-1.395,2.656l-.428-1.952c-2.212-2.125-2.2-5.2-2.045-6.675a14.877,14.877,0,0,1-3.95,1.3,29.41,29.41,0,0,1-11.245.026,7.458,7.458,0,0,1-2.1,5.352l-.023.105-.4,1.847s-.943-1.7-1.545-2.965c-.051-.037-.1-.073-.159-.108a2.19,2.19,0,0,0-.868-.323,12.54,12.54,0,0,1-.749-4.25,3.322,3.322,0,0,1,.136-.576,10.985,10.985,0,0,1,4.662-5.451,5.888,5.888,0,0,1,1.009-.356c.019-.026.04-.051.061-.077a6.04,6.04,0,0,1,1.233-1.158,10.006,10.006,0,0,1,5-1.741,16.428,16.428,0,0,1,5.313.527c2.155.538,4.323,1.584,6.469,1.416a5.162,5.162,0,0,0,1.018-.18c-.068.152-.138.3-.208.456a8.483,8.483,0,0,1-.69,1.252c-.044.066-.089.131-.131.2a4.959,4.959,0,0,1-.655.864c.047.035.094.07.14.11a.9.9,0,0,1,.1.073,6.678,6.678,0,0,0,1.767-.648,6.393,6.393,0,0,1-.295.644,6.715,6.715,0,0,1-.55.894c.059.068.117.136.173.206a5.893,5.893,0,0,1,.356.5c.026.04.051.08.077.122A8.156,8.156,0,0,1,433.691,131.085Z" transform="translate(-407.403 -119.089)" fill="#784324"/>
        </g>
        <g id="Group_199" data-name="Group 199">
          <g id="Group_198" data-name="Group 198">
            <path id="Path_299" data-name="Path 299" d="M433.474,146.381c-.063.222-.134.435-.211.644a2.261,2.261,0,0,0-.718.29c-.063.136-.131.279-.2.424v0c-.594,1.219-1.395,2.656-1.395,2.656l-.428-1.952c-2.212-2.125-2.2-5.2-2.045-6.675a14.877,14.877,0,0,1-3.95,1.3,29.409,29.409,0,0,1-11.245.026,7.458,7.458,0,0,1-2.1,5.352l-.023.105-.4,1.847s-.943-1.7-1.545-2.965c-.051-.037-.1-.073-.159-.108a2.19,2.19,0,0,0-.868-.323,12.54,12.54,0,0,1-.749-4.25,3.322,3.322,0,0,1,.136-.576,7.061,7.061,0,0,0,.613,1.987,3.09,3.09,0,0,0,.754,1.023,1.392,1.392,0,0,0,.882.358,1.374,1.374,0,0,0,.683-.185,1.892,1.892,0,0,0,.562-.494,4.239,4.239,0,0,0,.609-1.329,25.261,25.261,0,0,0,1.074-5.668c0-.021,0-.04,0-.061s0-.068.007-.1l.059.049.016.014c.129.11.257.218.389.323.1.08.2.159.295.236a12.224,12.224,0,0,0,6.071,2.75c.248.03.5.049.756.059a17.271,17.271,0,0,0,3.562-.37c2.928-.51,5.989-1.081,8.456-2.666a6.71,6.71,0,0,1-.55.894c.059.068.117.136.173.206a5.893,5.893,0,0,1,.356.5,21.676,21.676,0,0,0-.906,2.626c-.049.176-.094.351-.138.529-.033.129-.063.26-.087.391a3.255,3.255,0,0,0-.075.81,2.454,2.454,0,0,0,.92,1.753,2.333,2.333,0,0,0,.466.3A2.743,2.743,0,0,0,433.474,146.381Z" transform="translate(-407.403 -133.348)" fill="#784324" opacity="0.5" style="mix-blend-mode: multiply;isolation: isolate"/>
            <path id="Path_300" data-name="Path 300" d="M450.482,128.755a8.478,8.478,0,0,1-.69,1.252c-.044.066-.089.131-.131.2a10.941,10.941,0,0,1-1.343.513,22.928,22.928,0,0,1-9.113.9c-2.4-.25-4.688-1.107-7.1-1.252a.817.817,0,0,0-.735.389,1.386,1.386,0,0,1,.939-.953,3.761,3.761,0,0,1,1.383-.129c2.642.1,5.261.541,7.9.693a17.375,17.375,0,0,0,7.793-1.027A5.8,5.8,0,0,0,450.482,128.755Z" transform="translate(-425.762 -126.493)" fill="#784324" opacity="0.5" style="mix-blend-mode: screen;isolation: isolate"/>
            <path id="Path_301" data-name="Path 301" d="M450.974,137.289a6.719,6.719,0,0,1-.55.894c.059.068.117.136.173.206a4.069,4.069,0,0,1-.737.737,7.033,7.033,0,0,1-2.8,1.116,19.381,19.381,0,0,1-6.164.569,14.334,14.334,0,0,1-2.691-.545,30.991,30.991,0,0,1-6.071-2.75c-.14-.077-.281-.157-.419-.234.042,0,.082,0,.124,0,2.97-.08,5.783,1.327,8.732,1.751a13.617,13.617,0,0,0,8.839-1.809.911.911,0,0,1,.1.073,6.678,6.678,0,0,0,1.767-.648A6.393,6.393,0,0,1,450.974,137.289Z" transform="translate(-426.022 -132.536)" fill="#784324" opacity="0.5" style="mix-blend-mode: screen;isolation: isolate"/>
            <path id="Path_302" data-name="Path 302" d="M417.89,137.645c-.023.026-.047.052-.068.077s-.061.066-.087.1a9.308,9.308,0,0,0-2.251,5.266,13.5,13.5,0,0,0-.012,1.921c0,.1.012.2.019.3a10.3,10.3,0,0,0,.658,3.192l-.4,1.847s-.943-1.7-1.545-2.965c-.052-.037-.1-.073-.159-.108-.059-.707-.107-1.423-.114-2.139a9.008,9.008,0,0,1,.922-4.545,9.528,9.528,0,0,1,2.892-2.834c.021-.016.044-.033.066-.051Z" transform="translate(-412.398 -133.302)" fill="#784324" opacity="0.5" style="mix-blend-mode: screen;isolation: isolate"/>
            <path id="Path_303" data-name="Path 303" d="M507.5,156.167a7.494,7.494,0,0,1-.217,1.037c-.063.222-.134.435-.211.644a2.261,2.261,0,0,0-.718.29c-.063.136-.131.279-.2.424a14.065,14.065,0,0,0-.295-1.926,13.922,13.922,0,0,0-.845-2.563,13.514,13.514,0,0,0-1.25-2.237,15.218,15.218,0,0,1,1.474,1.318A13.784,13.784,0,0,1,507.5,156.167Z" transform="translate(-481.21 -144.171)" fill="#784324" opacity="0.5" style="mix-blend-mode: screen;isolation: isolate"/>
            <path id="Path_304" data-name="Path 304" d="M450.6,121.075a8.269,8.269,0,0,1-2.675.9,13.674,13.674,0,0,1-4.772-.293q-1.137-.232-2.258-.531a14.524,14.524,0,0,0-2.408-.534,11.816,11.816,0,0,0-2.553.115,4.743,4.743,0,0,0-3.323,1.355.237.237,0,0,1-.028-.054,6.04,6.04,0,0,1,1.233-1.158,10.006,10.006,0,0,1,5-1.741,16.428,16.428,0,0,1,5.313.527C446.286,120.2,448.453,121.244,450.6,121.075Z" transform="translate(-426.688 -119.089)" fill="#784324" opacity="0.5" style="mix-blend-mode: screen;isolation: isolate"/>
          </g>
          <path id="Path_305" data-name="Path 305" d="M430.24,134.265l-.059.737-.065.734c-.038.489-.083.977-.11,1.465s-.049.976-.042,1.462a5.21,5.21,0,0,0,.055.725,1.7,1.7,0,0,0,.22.688,1.56,1.56,0,0,1-.333-.665,5.154,5.154,0,0,1-.123-.738,9.594,9.594,0,0,1-.011-1.487c.033-.494.084-.985.165-1.473A13.555,13.555,0,0,1,430.24,134.265Z" transform="translate(-424.52 -130.713)" fill="#3b1e0c"/>
        </g>
      </g>
    </g>
  </g>
</svg>
