<svg xmlns="http://www.w3.org/2000/svg" width="42.211" height="61.398" viewBox="0 0 42.211 61.398">
  <path id="Path_69" data-name="Path 69" d="M63.5,62.13H38.553V60.211H63.5Zm0-5.756H34.715v1.919H63.5ZM36.634,60.211H34.715V62.13h1.919ZM63.5,64.048H38.553v1.919H63.5Zm-26.861,0H34.715v1.919h1.919ZM63.5,67.886H38.553V69.8H63.5Zm-26.861,0H34.715V69.8h1.919Zm1.919,5.756H63.5V71.723H38.553Zm-3.837,0h1.919V71.723H34.715Zm0-29.739h5.756V54.455H34.715Zm1.919,8.634h1.919V45.821H36.634ZM42.39,35.268h5.756V54.455H42.39Zm1.919,17.268h1.919V37.187H44.309Zm5.756-13.431h5.756V54.455H50.065Zm1.919,13.431H53.9V41.024H51.983ZM63.5,54.455H57.739V37.187H63.5ZM61.577,39.105H59.658V52.536h1.919Zm-16.4-10.275-8.193,6.648,1.209,1.5,7.157-5.823,7.531,4.394,6.4-2.878-.393,1.919,1.919.393.959-4.7-4.691-.959-.393,1.871.959.2L53,33.349Zm23.11,26.583h1.919V53.5H68.292ZM67.333,18H30.878A2.878,2.878,0,0,0,28,20.878V76.52A2.878,2.878,0,0,0,30.878,79.4H67.333a2.878,2.878,0,0,0,2.878-2.878V57.333H68.292V76.52a.96.96,0,0,1-.959.959H30.878a.96.96,0,0,1-.959-.959V20.878a.96.96,0,0,1,.959-.959H67.333a.96.96,0,0,1,.959.959v28.78h1.919V20.878A2.878,2.878,0,0,0,67.333,18Z" transform="translate(-28 -18)" fill="#666"/>
</svg>
