<svg xmlns="http://www.w3.org/2000/svg" width="41.513" height="40.676" viewBox="0 0 41.513 40.676">
  <path id="Path_351" data-name="Path 351" d="M100.874,33.187a2.281,2.281,0,1,0-1.609-.668,2.277,2.277,0,0,0,1.609.668Zm0-3.273a1,1,0,1,1-1,1,1,1,0,0,1,1-1Zm-10.365,8.3a.641.641,0,0,0,.7-.141l4.627-4.632,4.02,4.02h0a.658.658,0,0,0,.906,0l2.273-2.273,3.149,3.149h0a.641.641,0,0,0,1.094-.453V27.5a.641.641,0,0,0-.641-.641H90.757a.641.641,0,0,0-.641.641V37.626a.641.641,0,0,0,.393.59Zm.889-10.07h14.6v8.2l-2.171-2.171a1.119,1.119,0,0,0-1.581,0l-1.935,1.935-3.683-3.683h0a1.145,1.145,0,0,0-1.581,0L91.4,36.076Zm-12.39,8.118.769.684a1.978,1.978,0,0,1,.508,2.256l-.389.953a3.264,3.264,0,0,0,2.1,4.4l.991.282a1.979,1.979,0,0,1,1.436,1.812l.051,1.03a3.255,3.255,0,0,0,3.256,3.11,3.326,3.326,0,0,0,.56-.047l1-.162a2,2,0,0,1,2.08,1.008l.491.906a3.26,3.26,0,0,0,4.768,1.1l.854-.6a2.012,2.012,0,0,1,2.311,0l.854.6a3.26,3.26,0,0,0,4.773-1.077l.5-.906h0a1.987,1.987,0,0,1,2.085-1l1.017.179a3.26,3.26,0,0,0,3.846-3.038l.055-1.03a1.978,1.978,0,0,1,1.444-1.8l1-.278a3.264,3.264,0,0,0,2.136-4.4l-.436-.949a1.978,1.978,0,0,1,.521-2.252l.761-.679a3.264,3.264,0,0,0,0-4.892l-.769-.684h0a1.978,1.978,0,0,1-.508-2.256l.423-.953a3.264,3.264,0,0,0-2.106-4.4l-.991-.282a1.978,1.978,0,0,1-1.436-1.812l-.051-1.03a3.255,3.255,0,0,0-3.256-3.11,3.322,3.322,0,0,0-.56.047l-1,.162a1.976,1.976,0,0,1-2.081-1.008l-.5-.906a3.264,3.264,0,0,0-4.768-1.1l-.854.6a2.016,2.016,0,0,1-2.311,0l-.854-.6a3.264,3.264,0,0,0-4.738,1.068l-.5.906a2,2,0,0,1-2.085,1l-1.017-.184h0a3.311,3.311,0,0,0-.577-.051,3.259,3.259,0,0,0-3.256,3.089L84.5,21h0a1.978,1.978,0,0,1-1.448,1.8l-.991.278a3.264,3.264,0,0,0-2.136,4.4l.4.957a1.981,1.981,0,0,1-.521,2.252l-.761.679a3.264,3.264,0,0,0,0,4.892Zm.854-3.931.778-.679a3.26,3.26,0,0,0,.854-3.709l-.389-.953a1.983,1.983,0,0,1,1.281-2.675l1.009-.274a3.259,3.259,0,0,0,2.384-2.991l.055-1.03h0a1.989,1.989,0,0,1,2.328-1.846l1.017.184a3.293,3.293,0,0,0,.573.051A3.26,3.26,0,0,0,92.611,16.7l.5-.906a2,2,0,0,1,2.9-.62l.854.6a3.315,3.315,0,0,0,3.807,0l.854-.6a1.978,1.978,0,0,1,2.893.667l.457.931a3.259,3.259,0,0,0,3.418,1.662l1.017-.175a1.978,1.978,0,0,1,2.316,1.858l.051,1.03a3.26,3.26,0,0,0,2.367,2.991l.991.282a1.983,1.983,0,0,1,1.282,2.679l-.4.949a3.26,3.26,0,0,0,.854,3.713l.769.684h0a1.983,1.983,0,0,1,0,2.991l-.773.679a3.26,3.26,0,0,0-.854,3.709l.4.953a1.982,1.982,0,0,1-1.282,2.675l-1.03.239a3.259,3.259,0,0,0-2.384,2.991l-.055,1.03h0a1.987,1.987,0,0,1-2.328,1.846l-1.017-.179a3.283,3.283,0,0,0-3.418,1.645l-.5.906h0a1.983,1.983,0,0,1-1.756,1,1.962,1.962,0,0,1-1.158-.376l-.854-.6a3.264,3.264,0,0,0-3.807,0l-.854.6a1.979,1.979,0,0,1-2.893-.667l-.457-.931A3.264,3.264,0,0,0,89.1,49.3l-1.017.175a1.982,1.982,0,0,1-2.32-1.859l-.051-1.03A3.26,3.26,0,0,0,83.344,43.6l-.991-.282a1.983,1.983,0,0,1-1.282-2.679l.4-.949a3.261,3.261,0,0,0-.855-3.713l-.769-.684h0a1.983,1.983,0,0,1,0-2.991ZM90.346,43.48h16.7a2.842,2.842,0,0,0,2.837-2.837V27.1a2.842,2.842,0,0,0-2.837-2.837h-16.7A2.842,2.842,0,0,0,87.509,27.1V40.644a2.842,2.842,0,0,0,2.837,2.837ZM88.791,27.1a1.556,1.556,0,0,1,1.555-1.555h16.7A1.556,1.556,0,0,1,108.6,27.1V40.643a1.556,1.556,0,0,1-1.555,1.555h-16.7a1.556,1.556,0,0,1-1.555-1.555Z" transform="translate(-77.938 -13.541)" fill="#505050"/>
</svg>
