<svg xmlns="http://www.w3.org/2000/svg" width="55.687" height="55.688" viewBox="0 0 55.687 55.688">
  <path id="Path_78" data-name="Path 78" d="M48.123,26.75c-3.935,0-9.167,3-10.638,3s-6.7-3-10.638-3V19.945c0-2.012,4.756-3.639,10.638-3.639s10.638,1.627,10.638,3.639ZM60.465,14.131a.513.513,0,0,0-.181-.923c-3.44-.747-14-3.3-22.1-8.018a1.4,1.4,0,0,0-1.408,0c-8.1,4.719-18.656,7.271-22.1,8.018a.512.512,0,0,0-.181.923,52.243,52.243,0,0,0,10.4,5.538c.288-3.677,6.456-5.322,12.577-5.322s12.293,1.645,12.587,5.316a52.307,52.307,0,0,0,7.3-3.572v7.918a1.8,1.8,0,0,0,0,3.239V27.6L56.093,33.41c0,1.165,4.141,1.165,4.141,0L58.954,27.6v-.348a1.8,1.8,0,0,0,0-3.239V15.126C59.462,14.8,59.967,14.472,60.465,14.131ZM52.644,60.688a1.237,1.237,0,0,0,1.237-1.237v-33.5a1.238,1.238,0,0,0-2.475,0V58.212H7.475V27.188H21.022a1.238,1.238,0,1,0,0-2.475H6.238A1.238,1.238,0,0,0,5,25.951v33.5a1.237,1.237,0,0,0,1.238,1.237ZM13.492,41.463v2.475H33.015V41.463Zm0,9.281h31.9V48.269h-31.9Z" transform="translate(-5 -5)" fill="#666"/>
</svg>
