<svg xmlns="http://www.w3.org/2000/svg" width="38.268" height="59.558" viewBox="0 0 38.268 59.558">
  <g id="Group_39" data-name="Group 39" transform="translate(-16.56 -3.857)">
    <path id="Path_49" data-name="Path 49" d="M30.02,63.415s15.256,0,20.341-.328.576-.978,0-.978l4.18-11.469a3.592,3.592,0,0,0,.223-1.209l.063-10.094a.96.96,0,0,0-.093-.42,5.26,5.26,0,0,0-5.767-3.164V4.856a1.022,1.022,0,0,0-1.044-1h-29.8a1.022,1.022,0,0,0-1.044,1V37.471a3.245,3.245,0,0,0-.04,3.454L30.02,62.108C30.017,62.993,30.02,63.415,30.02,63.415ZM46.879,5.856V33.812a6.544,6.544,0,0,0-4.287-.231c-.927-1.274-3-2.077-5.619-1.254l0-.358a7.43,7.43,0,0,0,4.077-6.486V18.268c0-4.113-3.589-7.506-8.1-7.506-4.467,0-8.1,3.367-8.1,7.506v7.215a7.314,7.314,0,0,0,3.933,6.411l-.014,5.183h-5.9l-.167-.19a3.628,3.628,0,0,0-3.542-.944V5.856ZM24.628,39.076h4.141l-.011,4.707Zm4.187-17.728-.021,8.107a5.241,5.241,0,0,1-1.852-3.971V18.268a5.783,5.783,0,0,1,6.013-5.507,5.772,5.772,0,0,1,6.013,5.507v7.216A5.318,5.318,0,0,1,37,29.539l.088-8.135a4.142,4.142,0,0,0-8.278-.056Zm3.406,40.4L18.841,39.917a1.365,1.365,0,0,1,.233-1.692,1.524,1.524,0,0,1,2.073-.012L28.3,46.369a1.449,1.449,0,0,0,1.588.422,1.363,1.363,0,0,0,.954-1.291L30.9,21.357a2.052,2.052,0,0,1,4.1.023c-.093,11.3-.159,7.553-.06,18.843a1.045,1.045,0,0,0,2.088,0V34.47c1.392-.6,3.4-.759,3.96.477v6.135a1.045,1.045,0,0,0,2.088,0V35.525c3.876-.809,3.442,1.055,3.8,1.856v6.012a1.045,1.045,0,0,0,2.088,0V37.766a3.207,3.207,0,0,1,3.766,1.787l-.061,9.872a1.711,1.711,0,0,1-.114.573L48.347,62.108Z" fill="#666"/>
  </g>
</svg>
