<svg xmlns="http://www.w3.org/2000/svg" width="60.129" height="60.252" viewBox="0 0 60.129 60.252">
  <g id="Group_35" data-name="Group 35" transform="translate(-1.129 -1)">
    <path id="Path_35" data-name="Path 35" d="M32.356,12A10.356,10.356,0,1,0,42.711,22.356,10.356,10.356,0,0,0,32.356,12Zm0,18.829a8.473,8.473,0,1,1,8.473-8.473A8.472,8.472,0,0,1,32.356,30.829Z" transform="translate(-1.222 -0.644)" fill="#666"/>
    <path id="Path_36" data-name="Path 36" d="M43.837,37.81a.942.942,0,0,0,1.186-.094l2.692-2.692a.941.941,0,0,0,.122-1.186l-1.883-2.871a16.659,16.659,0,0,0,2.325-5.771l3.389-.659a.941.941,0,0,0,.753-.941V19.829a.941.941,0,0,0-.753-.941l-3.389-.678a16.644,16.644,0,0,0-2.391-5.771l1.883-2.871A.942.942,0,0,0,47.716,8.4L45.023,5.707a.941.941,0,0,0-1.186-.122L40.966,7.468a16.659,16.659,0,0,0-5.771-2.325l-.659-3.389A.941.941,0,0,0,33.594,1H29.829a.941.941,0,0,0-.941.753l-.659,3.389a16.644,16.644,0,0,0-5.771,2.391L19.586,5.651a.941.941,0,0,0-1.186.056L15.707,8.4a.941.941,0,0,0-.122,1.186l1.883,2.871a16.659,16.659,0,0,0-2.325,5.771l-3.389.659a.941.941,0,0,0-.753.941v3.766a.941.941,0,0,0,.753.941l3.389.678a16.644,16.644,0,0,0,2.391,5.771l-1.883,2.871a.942.942,0,0,0,.056,1.167L18.4,37.716a.941.941,0,0,0,1.186.122l2.871-1.883a16.659,16.659,0,0,0,5.771,2.325l.659,3.389a.941.941,0,0,0,.941.753h3.766a.941.941,0,0,0,.941-.753l.678-3.389a16.644,16.644,0,0,0,5.771-2.391ZM40.42,33.95a14.936,14.936,0,0,1-6.185,2.561.943.943,0,0,0-.763.744l-.65,3.286H30.6l-.65-3.248a.943.943,0,0,0-.763-.744A14.939,14.939,0,0,1,23,33.95a.942.942,0,0,0-1.064,0l-2.758,1.883L17.59,34.242l1.883-2.758a.942.942,0,0,0,0-1.064,14.936,14.936,0,0,1-2.561-6.185.943.943,0,0,0-.744-.763l-3.286-.65V20.6l3.248-.65a.943.943,0,0,0,.744-.763A14.939,14.939,0,0,1,19.473,13a.942.942,0,0,0,0-1.064L17.59,9.181,19.181,7.59l2.758,1.883a.942.942,0,0,0,1.064,0,14.936,14.936,0,0,1,6.185-2.561.943.943,0,0,0,.763-.744l.65-3.286h2.222l.65,3.248a.943.943,0,0,0,.763.744,14.939,14.939,0,0,1,6.185,2.6.942.942,0,0,0,1.064,0L44.242,7.59l1.591,1.591L43.95,11.939a.942.942,0,0,0,0,1.064,14.936,14.936,0,0,1,2.561,6.185.943.943,0,0,0,.744.763l3.248.65v2.222l-3.248.65a.943.943,0,0,0-.744.763A14.936,14.936,0,0,1,43.95,30.42a.942.942,0,0,0,0,1.064l1.883,2.758-1.591,1.591L41.483,33.95A.942.942,0,0,0,40.42,33.95Z" transform="translate(-0.578 0)" fill="#666"/>
    <path id="Path_37" data-name="Path 37" d="M60.743,25.47a2.759,2.759,0,0,0-2.711,2.382l-.64,4.858a3.536,3.536,0,0,0-.744-.4A3.6,3.6,0,0,0,52.185,33.9l-1.977,3.568a12.355,12.355,0,0,1-3.86,3.464,12.234,12.234,0,0,0-2.128,1.629c-4.01,3.869-3.766,8.633-3.672,10.921v.772a1.877,1.877,0,0,0-1.007.584,1.817,1.817,0,0,0-.442,1.431l.6,4.82a1.826,1.826,0,0,0,1.855,1.6H52.241a1.827,1.827,0,0,0,1.826-1.826v-4.82a1.827,1.827,0,0,0-1.826-1.826H51.7a2.417,2.417,0,0,1,1.167-1.723c2.749-1.374,10.61-6.646,10.61-12.615V28.21A2.74,2.74,0,0,0,60.743,25.47ZM52.185,60.8H41.6l-.65-4.707,11.231-.056ZM61.6,39.874c0,4.594-6.59,9.414-9.574,10.93a4.342,4.342,0,0,0-2.194,3.276.616.616,0,0,0,0,.132h-7.39V53.43c-.094-2.165-.282-6.2,3.107-9.48a10,10,0,0,1,1.789-1.365A14.322,14.322,0,0,0,51.8,38.537l2-3.6A1.817,1.817,0,0,1,55.32,34a1.666,1.666,0,0,1,1.7,1.619L56.77,37.5a3.3,3.3,0,0,1-.941,1.883l-1.4,1.4a6.959,6.959,0,0,0-1.977,3.907.942.942,0,0,0,.811,1.056,1.017,1.017,0,0,0,.131.008h0a.941.941,0,0,0,.941-.8,5.124,5.124,0,0,1,1.44-2.824l1.4-1.4a5.164,5.164,0,0,0,1.478-2.984L59.9,28.1a.849.849,0,0,1,1.695.113Z" transform="translate(-2.223 -1.433)" fill="#666"/>
    <path id="Path_38" data-name="Path 38" d="M43.4,61.215a.847.847,0,1,0-.838-.857v.019A.837.837,0,0,0,43.4,61.215Z" transform="translate(-2.427 -3.428)" fill="#666"/>
    <path id="Path_39" data-name="Path 39" d="M24.025,54.21v-.772c.1-2.288.329-7.051-3.672-10.911a11.581,11.581,0,0,0-2.137-1.638,12.311,12.311,0,0,1-3.85-3.464l-1.977-3.577a3.6,3.6,0,0,0-4.462-1.591,3.33,3.33,0,0,0-.744.4L6.571,27.85a2.73,2.73,0,0,0-5.441.367V39.872c0,5.969,7.861,11.241,10.61,12.615A2.431,2.431,0,0,1,12.9,54.21h-.527a1.827,1.827,0,0,0-1.826,1.826v4.82a1.827,1.827,0,0,0,1.826,1.826H23.056a1.882,1.882,0,0,0,1.817-1.6l.612-4.82a1.817,1.817,0,0,0-.442-1.431A1.882,1.882,0,0,0,24.025,54.21ZM12.578,50.8c-2.994-1.5-9.565-6.336-9.565-10.93V28.208a.847.847,0,0,1,.838-.857H3.86a.857.857,0,0,1,.847.744l1.28,9.631a5.207,5.207,0,0,0,1.478,2.994l1.4,1.393a5.141,5.141,0,0,1,1.45,2.824.941.941,0,0,0,.941.8h0a.94.94,0,0,0,.949-.933.865.865,0,0,0-.008-.131,6.983,6.983,0,0,0-1.977-3.907L8.8,39.382A3.3,3.3,0,0,1,7.861,37.5L7.6,35.617a1.676,1.676,0,0,1,1.384-1.6,1.817,1.817,0,0,1,1.883.941l1.93,3.5.056.085A14.289,14.289,0,0,0,17.3,42.593a9.37,9.37,0,0,1,1.789,1.365c3.4,3.276,3.21,7.315,3.107,9.48v.781H14.771v-.132A4.37,4.37,0,0,0,12.578,50.8Zm10.478,10H12.418V56.093L23.6,56.036Z" transform="translate(0 -1.431)" fill="#666"/>
    <path id="Path_40" data-name="Path 40" d="M22.627,61.215a.847.847,0,1,0-.847-.847v.009a.837.837,0,0,0,.838.838Z" transform="translate(-1.21 -3.428)" fill="#666"/>
    <path id="Path_41" data-name="Path 41" d="M35.227,22.277a10.537,10.537,0,0,0-1.8-.555v-2.58a6.158,6.158,0,0,1,2.325.791l.763-1.883a6.793,6.793,0,0,0-3.088-.941V15.48H31.913v1.685a4.341,4.341,0,0,0-2.645,1.1,2.909,2.909,0,0,0-.941,2.165,2.551,2.551,0,0,0,.5,1.638,3.376,3.376,0,0,0,1.243.941,12.125,12.125,0,0,0,1.826.574v2.532A6.073,6.073,0,0,1,30.3,25.76a5.746,5.746,0,0,1-1.356-.725l-.838,1.883a5.633,5.633,0,0,0,1.647.819,8.735,8.735,0,0,0,2.137.4V29.78H33.41V28.086a4.4,4.4,0,0,0,2.627-1.1,2.825,2.825,0,0,0,.941-2.137,2.525,2.525,0,0,0-.5-1.647A3.2,3.2,0,0,0,35.227,22.277Zm-3.314-.941a2.322,2.322,0,0,1-.838-.414.782.782,0,0,1-.282-.621.942.942,0,0,1,.273-.687,1.639,1.639,0,0,1,.847-.433Zm2.335,4.312a1.669,1.669,0,0,1-.819.4v-2.09a2.542,2.542,0,0,1,.819.424.828.828,0,0,1,.273.631.868.868,0,0,1-.273.65Z" transform="translate(-1.58 -0.848)" fill="#666"/>
  </g>
</svg>
