<svg xmlns="http://www.w3.org/2000/svg" width="56" height="56" viewBox="0 0 56 56">
  <g id="Group_56" data-name="Group 56" transform="translate(-4 -4)">
    <path id="Path_103" data-name="Path 103" d="M9,44.08a1,1,0,0,1-1-1v-5a1,1,0,0,1,2,0v5A1,1,0,0,1,9,44.08Z" fill="#666"/>
    <path id="Path_104" data-name="Path 104" d="M9,26.08a1,1,0,0,1-1-1v-5a1,1,0,0,1,2,0v5A1,1,0,0,1,9,26.08Z" fill="#666"/>
    <path id="Path_105" data-name="Path 105" d="M37,54.92H13a5,5,0,0,1-5-5V47.08a1,1,0,0,1,2,0v2.84a3,3,0,0,0,3,3H37a1,1,0,0,0,1-1V12.08a1,1,0,0,0-1-1H13a3,3,0,0,0-3,3h0v2a1,1,0,0,1-2,0v-2a5,5,0,0,1,5-5H37a3,3,0,0,1,3,3V51.92A3,3,0,0,1,37,54.92Z" fill="#666"/>
    <path id="Path_106" data-name="Path 106" d="M9,35.08a1,1,0,0,1-1-1v-5a1,1,0,0,1,2,0v5A1,1,0,0,1,9,35.08Z" fill="#666"/>
    <path id="Path_107" data-name="Path 107" d="M11,21.08H7a3,3,0,1,1,0-6h4a3,3,0,0,1,0,6Zm-4-4a1,1,0,0,0,0,2h4a1,1,0,0,0,0-2Z" fill="#666"/>
    <path id="Path_108" data-name="Path 108" d="M11,30.08H7a3,3,0,0,1,0-6h4a3,3,0,1,1,0,6Zm-4-4a1,1,0,0,0,0,2h4a1,1,0,1,0,0-2Z" fill="#666"/>
    <path id="Path_109" data-name="Path 109" d="M11,39.08H7a3,3,0,0,1,0-6h4a3,3,0,0,1,0,6Zm-4-4a1,1,0,0,0,0,2h4a1,1,0,0,0,0-2Z" fill="#666"/>
    <path id="Path_110" data-name="Path 110" d="M11,48.08H7a3,3,0,0,1,0-6h4a3,3,0,0,1,0,6Zm-4-4a1,1,0,0,0,0,2h4a1,1,0,0,0,0-2Z" fill="#666"/>
    <path id="Path_111" data-name="Path 111" d="M16,54.08a1,1,0,0,1-1-1v-43a1,1,0,1,1,2,0v43A1,1,0,0,1,16,54.08Z" fill="#666"/>
    <path id="Path_112" data-name="Path 112" d="M30,16.08H23a1,1,0,1,1,0-2h7a1,1,0,0,1,0,2Z" fill="#666"/>
    <path id="Path_113" data-name="Path 113" d="M28.5,34A4.5,4.5,0,1,1,33,29.5,4.5,4.5,0,0,1,28.5,34Zm0-7A2.5,2.5,0,1,0,31,29.5,2.5,2.5,0,0,0,28.5,27Z" fill="#666"/>
    <path id="Path_114" data-name="Path 114" d="M46,31H32a1,1,0,0,1,0-2H45V10a3,3,0,0,1,3-3h5a1,1,0,0,1,0,2H48a1,1,0,0,0-1,1V30A1,1,0,0,1,46,31Z" fill="#666"/>
    <path id="Path_115" data-name="Path 115" d="M53,54H48a3,3,0,0,1-3-3V30a1,1,0,0,1,2,0V51a1,1,0,0,0,1,1h5a1,1,0,0,1,0,2Z" fill="#666"/>
    <path id="Path_116" data-name="Path 116" d="M56,12a4,4,0,1,1,4-4A4,4,0,0,1,56,12Zm0-6a2,2,0,1,0,2,2A2,2,0,0,0,56,6Z" fill="#666"/>
    <path id="Path_117" data-name="Path 117" d="M56,57a4,4,0,1,1,4-4A4,4,0,0,1,56,57Zm0-6a2,2,0,1,0,2,2A2,2,0,0,0,56,51Z" fill="#666"/>
    <path id="Path_118" data-name="Path 118" d="M56,34a4,4,0,1,1,4-4A4,4,0,0,1,56,34Zm0-6a2,2,0,1,0,2,2A2,2,0,0,0,56,28Z" fill="#666"/>
    <path id="Path_119" data-name="Path 119" d="M53,31H46a1,1,0,0,1,0-2h7a1,1,0,0,1,0,2Z" fill="#666"/>
    <path id="Path_120" data-name="Path 120" d="M58,15H54a1,1,0,0,1,0-2h4a1,1,0,0,1,0,2Z" fill="#666"/>
    <path id="Path_121" data-name="Path 121" d="M58,39H54a1,1,0,0,1,0-2h4a1,1,0,0,1,0,2Z" fill="#666"/>
    <path id="Path_122" data-name="Path 122" d="M58,60H54a1,1,0,0,1,0-2h4a1,1,0,0,1,0,2Z" fill="#666"/>
  </g>
</svg>
