<svg xmlns="http://www.w3.org/2000/svg" width="39.733" height="61.398" viewBox="0 0 39.733 61.398">
  <g id="Group_50" data-name="Group 50" transform="translate(-15.9 -22.5)">
    <path id="Path_86" data-name="Path 86" d="M27.5,56.877a13.016,13.016,0,0,0,.614,3.859A.862.862,0,1,0,29.78,60.3a12.42,12.42,0,0,1-.526-3.333c0-2.982,4.561-3.947,6.491-4.21.351-.088.7-.351.7-.7a.938.938,0,0,0-.439-.965c-1.4-.877-2.544-3.245-2.544-5.438,0-3.07,2.28-3.6,3.684-3.6s3.684.439,3.684,3.6a7.159,7.159,0,0,1-2.544,5.438c-.351.175-.439.526-.439.965a.952.952,0,0,0,.7.7c1.93.263,6.491,1.228,6.491,4.21a12.42,12.42,0,0,1-.526,3.333.779.779,0,0,0,.614,1.053h.263a1.056,1.056,0,0,0,.877-.614,15.351,15.351,0,0,0,.614-3.859c0-2.719-2.193-4.649-6.227-5.614a9.064,9.064,0,0,0,1.93-5.614,5.043,5.043,0,0,0-5.438-5.35,5.043,5.043,0,0,0-5.438,5.35,9.633,9.633,0,0,0,1.93,5.614C29.693,52.229,27.5,54.158,27.5,56.877Z" transform="translate(-1.426 -2.187)" fill="#666"/>
    <path id="Path_87" data-name="Path 87" d="M16.777,84.475H54.756a.829.829,0,0,0,.877-.877V28.077a.829.829,0,0,0-.877-.877H43.88a.877.877,0,0,0,0,1.754h10V82.721H17.654V28.954h10a.877.877,0,1,0,0-1.754H16.777a.829.829,0,0,0-.877.877V83.6A.829.829,0,0,0,16.777,84.475Z" transform="translate(0 -0.578)" fill="#666"/>
    <path id="Path_88" data-name="Path 88" d="M33.677,32.411h8.245a.829.829,0,0,0,.877-.877V23.377a.829.829,0,0,0-.877-.877H33.677a.829.829,0,0,0-.877.877v8.157A.879.879,0,0,0,33.677,32.411Zm.877-8.157h6.491v6.4H34.554Z" transform="translate(-2.077)" fill="#666"/>
    <path id="Path_89" data-name="Path 89" d="M45.705,73.8H28.777a.877.877,0,1,0,0,1.754H45.618a.829.829,0,0,0,.877-.877A.81.81,0,0,0,45.705,73.8Z" transform="translate(-1.475 -6.304)" fill="#666"/>
    <path id="Path_90" data-name="Path 90" d="M46.582,79.277a.829.829,0,0,0-.877-.877H28.777a.877.877,0,0,0,0,1.754H45.618A.961.961,0,0,0,46.582,79.277Z" transform="translate(-1.475 -6.87)" fill="#666"/>
    <path id="Path_91" data-name="Path 91" d="M33.377,82.9a.877.877,0,1,0,0,1.754h8.947a.877.877,0,1,0,0-1.754Z" transform="translate(-2.04 -7.423)" fill="#666"/>
  </g>
</svg>
