<svg xmlns="http://www.w3.org/2000/svg" width="54.869" height="54.869" viewBox="0 0 54.869 54.869">
  <g id="Group_43" data-name="Group 43" transform="translate(-1 -1)">
    <path id="Path_57" data-name="Path 57" d="M54.9,7.195v1.77H49.025L39.535,1.2a.884.884,0,0,0-.56-.2H11.54a3.54,3.54,0,1,0,0,7.08h.089a4.433,4.433,0,0,0,4.336,3.54h5.31v6.195a3.54,3.54,0,1,0,7.08,0v-4.99L32.309,8.08h3.644l2.136,2.136v4.059H33.665a3.54,3.54,0,0,0,0,7.08H54.9v1.77h1.77V7.195ZM21.793,9.85H15.965a2.651,2.651,0,0,1-2.492-1.77H23.563Zm11.871,9.735a1.77,1.77,0,1,1,0-3.54h5.31a.885.885,0,0,0,.885-.885V9.85a.883.883,0,0,0-.259-.626L36.945,6.569a.883.883,0,0,0-.626-.259H31.895a.884.884,0,0,0-.68.319l-4.425,5.31a.884.884,0,0,0-.205.566v5.31a1.77,1.77,0,0,1-3.54,0V11.1l3.281-3.281A.885.885,0,0,0,25.7,6.31H11.54a1.77,1.77,0,1,1,0-3.54H38.659l9.491,7.765a.884.884,0,0,0,.56.2H54.9v8.85Z" transform="translate(-0.805)" fill="#666"/>
    <path id="Path_58" data-name="Path 58" d="M31.54,31.54a1.772,1.772,0,0,1,1.77,1.77h1.77A3.537,3.537,0,0,0,32.425,29.9V28h-1.77v1.9a3.532,3.532,0,0,0,.885,6.954,1.77,1.77,0,1,1-1.77,1.77H28a3.537,3.537,0,0,0,2.655,3.414v1.9h1.77v-1.9a3.532,3.532,0,0,0-.885-6.954,1.77,1.77,0,1,1,0-3.54Z" transform="translate(-3.105 -3.105)" fill="#666"/>
    <path id="Path_59" data-name="Path 59" d="M30.62,25A10.62,10.62,0,1,0,41.24,35.62,10.632,10.632,0,0,0,30.62,25Zm0,19.47a8.85,8.85,0,1,1,8.85-8.85A8.86,8.86,0,0,1,30.62,44.47Z" transform="translate(-2.185 -2.76)" fill="#666"/>
    <path id="Path_60" data-name="Path 60" d="M19.585,52.08H18.7V45.885A.885.885,0,0,0,17.815,45H1.885A.885.885,0,0,0,1,45.885v7.08a.885.885,0,0,0,.885.885H2.77v1.77H1.885A.885.885,0,0,0,1,56.5v3.54a.885.885,0,0,0,.885.885h15.93a.885.885,0,0,0,.885-.885V57.39h.885a.885.885,0,0,0,.885-.885v-3.54A.885.885,0,0,0,19.585,52.08Zm-16.815,0V50.31H16.93v1.77H2.77Zm0-5.31H16.93v1.77H2.77ZM16.93,59.16H2.77V57.39H16.93Zm1.77-3.54H4.54V53.85H18.7Z" transform="translate(0 -5.061)" fill="#666"/>
    <path id="Path_61" data-name="Path 61" d="M59.585,45H43.655a.885.885,0,0,0-.885.885V52.08h-.885a.885.885,0,0,0-.885.885V56.5a.885.885,0,0,0,.885.885h.885v2.655a.885.885,0,0,0,.885.885h15.93a.885.885,0,0,0,.885-.885V56.5a.885.885,0,0,0-.885-.885H58.7V53.85h.885a.885.885,0,0,0,.885-.885v-7.08A.885.885,0,0,0,59.585,45ZM44.54,46.77H58.7v1.77H44.54ZM58.7,59.16H44.54V57.39H58.7Zm-1.77-3.54H42.77V53.85H56.93Zm1.77-3.54H44.54V50.31H58.7Z" transform="translate(-4.6 -5.061)" fill="#666"/>
  </g>
</svg>
