<svg xmlns="http://www.w3.org/2000/svg" xmlns:xlink="http://www.w3.org/1999/xlink" width="36.133" height="68.888" viewBox="0 0 36.133 68.888">
  <defs>
    <radialGradient id="radial-gradient" cx="0.5" cy="0.5" r="0.5" gradientTransform="translate(0)" gradientUnits="objectBoundingBox">
      <stop offset="0" stop-color="#cc543a"/>
      <stop offset="0.821" stop-color="#d48149"/>
    </radialGradient>
    <radialGradient id="radial-gradient-2" cx="0.5" cy="0.5" r="0.5" gradientTransform="matrix(1, 0, 0, 1, 0, 0)" xlink:href="#radial-gradient"/>
  </defs>
  <g id="Group_133" data-name="Group 133" transform="translate(-568.134 -125.887)">
    <g id="Group_85" data-name="Group 85" transform="translate(573.77 179.73)">
      <g id="Group_79" data-name="Group 79">
        <g id="Group_76" data-name="Group 76" transform="translate(3.368)">
          <g id="Group_75" data-name="Group 75" transform="translate(0 0)">
            <g id="Group_74" data-name="Group 74">
              <path id="Path_156" data-name="Path 156" d="M605.548,349.623l.272,2.139.691,5.427.525,4.13,4.929-.038.059-11.657Z" transform="translate(-605.548 -349.623)" fill="#d48149"/>
            </g>
          </g>
          <path id="Path_157" data-name="Path 157" d="M605.547,349.623l.272,2.139a19.014,19.014,0,0,0,5.427.477l-.091,4.844-4.645.106.525,4.13,4.929-.039.058-11.657Z" transform="translate(-605.547 -349.623)" fill="#d48149" opacity="0.5" style="mix-blend-mode: multiply;isolation: isolate"/>
        </g>
        <g id="Group_78" data-name="Group 78" transform="translate(0 8.303)">
          <path id="Path_158" data-name="Path 158" d="M599.789,388.214l.737-.541.28-.38-.355-3.169h5.776l-.034,3.428.079.452a4.562,4.562,0,0,1,.241,2.2s-6.453.572-7.641.286a1.439,1.439,0,0,1-1.173-1.369Z" transform="translate(-596.219 -384.123)" fill="#e6f3ff"/>
          <g id="Group_77" data-name="Group 77" transform="translate(0 3.449)">
            <path id="Path_159" data-name="Path 159" d="M601.858,401.254s-7.915,1.109-10.3,0c0,0-.072-.556.749-.979.315-.166.811-.385,1.3-.6.782-.337,1.55-.645,1.55-.645a2.97,2.97,0,0,0,2.758.878,8.906,8.906,0,0,0-2.322-1.223l.224-.236a8.1,8.1,0,0,1,2.472,1.417c.151-.022.308-.051.472-.087,2.674-.587,2.842-1.03,2.842-1.03a5.144,5.144,0,0,1,.375,1.2A2.13,2.13,0,0,1,601.858,401.254Z" transform="translate(-591.551 -398.453)" fill="#541016"/>
            <path id="Path_160" data-name="Path 160" d="M601.858,405.119s-7.915,1.109-10.3,0c0,0-.072-.556.749-.979.315-.166.811-.385,1.3-.6a4.206,4.206,0,0,0,.419.33,4.347,4.347,0,0,0,1.629.746,5.584,5.584,0,0,0,1.042.079,12.5,12.5,0,0,0,5.28-.878A2.13,2.13,0,0,1,601.858,405.119Z" transform="translate(-591.551 -402.318)" fill="#541016" opacity="0.5" style="mix-blend-mode: multiply;isolation: isolate"/>
          </g>
        </g>
      </g>
      <g id="Group_84" data-name="Group 84" transform="translate(12.183)">
        <g id="Group_81" data-name="Group 81" transform="translate(0.56)">
          <g id="Group_80" data-name="Group 80" transform="translate(0 0)">
            <path id="Path_161" data-name="Path 161" d="M644.506,349.623l.061,11.657,4.926.038.527-4.146.671-5.268.291-2.281Z" transform="translate(-644.506 -349.623)" fill="#d48149"/>
          </g>
          <path id="Path_162" data-name="Path 162" d="M650.691,351.9l.291-2.281h-6.476l.061,11.657,4.926.039.527-4.146-3.928-.089L646,352.239A16.438,16.438,0,0,0,650.691,351.9Z" transform="translate(-644.506 -349.623)" fill="#d48149" opacity="0.5" style="mix-blend-mode: multiply;isolation: isolate"/>
        </g>
        <g id="Group_83" data-name="Group 83" transform="translate(0 8.303)">
          <path id="Path_163" data-name="Path 163" d="M649.439,388.214l-.737-.541-.28-.38.355-3.169H643l.033,3.428-.079.452a4.563,4.563,0,0,0-.241,2.2s6.453.572,7.641.286a1.439,1.439,0,0,0,1.173-1.369Z" transform="translate(-642.539 -384.123)" fill="#e6f3ff"/>
          <g id="Group_82" data-name="Group 82" transform="translate(0 3.449)">
            <path id="Path_164" data-name="Path 164" d="M652.646,401.254c-2.39,1.109-10.3,0-10.3,0a1.936,1.936,0,0,1-.147-1.076,4.941,4.941,0,0,1,.4-1.425s.171.443,2.845,1.03c.164.036.32.065.472.087a8.1,8.1,0,0,1,2.472-1.417l.224.236a8.866,8.866,0,0,0-2.322,1.223,2.963,2.963,0,0,0,2.755-.878s.52.209,1.141.472,1.309.558,1.714.77C652.716,400.7,652.646,401.254,652.646,401.254Z" transform="translate(-642.177 -398.453)" fill="#541016"/>
            <path id="Path_165" data-name="Path 165" d="M652.646,404.573c-2.39,1.109-10.3,0-10.3,0a1.935,1.935,0,0,1-.147-1.076,13.334,13.334,0,0,0,4.722.655,5.587,5.587,0,0,0,1.042-.079,4.352,4.352,0,0,0,1.627-.746,3.642,3.642,0,0,0,.6-.5c.607.255,1.309.558,1.714.77C652.716,404.017,652.646,404.573,652.646,404.573Z" transform="translate(-642.177 -401.771)" fill="#541016" opacity="0.5" style="mix-blend-mode: multiply;isolation: isolate"/>
          </g>
        </g>
      </g>
    </g>
    <g id="Group_104" data-name="Group 104" transform="translate(568.135 149.723)">
      <g id="Group_98" data-name="Group 98" transform="translate(0 4.466)">
        <g id="Group_93" data-name="Group 93">
          <g id="Group_88" data-name="Group 88" transform="translate(0 0)">
            <g id="Group_86" data-name="Group 86" transform="translate(0 7.838)">
              <path id="Path_166" data-name="Path 166" d="M574.039,283.747l-1.656,2.953s.269,2.5-.041,2.65-.741-.618-.741-.618-.9,2.086-1.208,1.959.1-1.583.1-1.583-1.016,1.367-1.247,1.174.416-1.721.45-1.8c-.339.5-1.348,1.148-1.4.888s.874-1.6.874-1.6-1.191.717-1.016.2a17.688,17.688,0,0,1,1.9-2.433,3.224,3.224,0,0,1,.084-.313c.643-2.33,1.309-4.652,2.019-6.962q.242-.791.491-1.576c.065-.209.132-.419.2-.628,1.36.842,2.755,1.627,4.127,2.452Z" transform="translate(-568.135 -276.063)" fill="#d48149"/>
              <path id="Path_167" data-name="Path 167" d="M587.175,280.871c.116-1.032-1.475-2.106-2.327-2.6q.242-.791.491-1.576c.065-.209.132-.419.2-.628,1.36.842,2.755,1.627,4.127,2.452l-2.936,5.232C586.927,282.57,587.113,281.427,587.175,280.871Z" transform="translate(-580.826 -276.063)" fill="#d48149" opacity="0.5" style="mix-blend-mode: multiply;isolation: isolate"/>
            </g>
            <g id="Group_87" data-name="Group 87" transform="translate(4.183)">
              <path id="Path_168" data-name="Path 168" d="M606.975,258.625l-.168-4.553-.079-2.151-.113-3.083-.32-.643-.53-1.056-.676-1.352-1.121-2.243-4.95.864-.645,2-1.3-2.147-3.049-.756-.1.014.01-.031s-.289.043-.741.14l-.034.007c-.332.058-.722.135-1.107.238a6.524,6.524,0,0,0-.989.337c-.13.046-.26.091-.392.142a5.206,5.206,0,0,0-2.7,1.875,45.332,45.332,0,0,0-2.445,6.137L589.2,254.8l.212.14c-.106,2.106-.159,3.687-.159,3.687Z" transform="translate(-585.518 -243.493)" fill="#35ae78"/>
              <path id="Path_169" data-name="Path 169" d="M599.669,258.606c.024-.643.063-1.492.111-2.452l-.212-.14.053-.306-.443-.963.647.51.116.091,1.088-9.7.007-.079c.132-.051.262-.1.392-.142l.188-.079a7.28,7.28,0,0,1,.8-.258l0,.029.6,3.311,1.131,6.274,10.228.2L615.461,247l.248-1.824.6.183,0,.1c.2.084.4.171.587.26-.067.876-.173,2.363-.221,3.687-.06,1.545-.043,2.866.2,2.729l-.082,1.1-.038.505.433,1.543.1,2.582.072,1.971H599.621S599.638,259.371,599.669,258.606Z" transform="translate(-595.891 -244.708)" fill="#35ae78" opacity="0.5" style="mix-blend-mode: multiply;isolation: isolate"/>
            </g>
          </g>
          <g id="Group_92" data-name="Group 92" transform="translate(4.063)">
            <path id="Path_170" data-name="Path 170" d="M610.325,269.093s-.722.2-1.954.469c-4.512.989-15.852,2.934-23.353-.469l3.636-9.147.094-.238.169-2.317.111-1.533s.137-.27.332-.7a12.793,12.793,0,0,0,1.314-4.635c-.072-1.709.142-5.533.19-6.37v-.017c.007-.1.01-.149.01-.149s.286-.1.71-.2a.474.474,0,0,1,.063-.017,8.207,8.207,0,0,1,1.9-.272v5.867s5.229,2.395,9.251.132c.077-.041.154-.087.229-.132l.561-5.817.067.022,1.3.4.1.031.493.152,0,.1-.164,2.89-.3,5.2-.058,1.035s.361,2.883,1.492,3.283a.749.749,0,0,0,.193.046l.108,2.635.012.294,2.958,8.023Z" transform="translate(-585.018 -243.493)" fill="#f8cc45"/>
            <g id="Group_91" data-name="Group 91" transform="translate(0 0.289)">
              <g id="Group_89" data-name="Group 89">
                <path id="Path_171" data-name="Path 171" d="M610.325,270.005s-15.763,4.332-25.307,0l3.636-9.147.094-.238.169-2.318.111-1.533s.137-.27.332-.7a12.793,12.793,0,0,0,1.314-4.635c-.072-1.709.142-5.533.19-6.37v-.017c.007-.1.01-.149.01-.149s.286-.1.71-.2l-.289,8.346-1.324,3.79.12,3.369a27.588,27.588,0,0,0,5.547.845l-5.547.3-2.647,8.182s14.249,2,22.35-.96Z" transform="translate(-585.018 -244.693)" fill="#f8cc45" opacity="0.5" style="mix-blend-mode: multiply;isolation: isolate"/>
                <path id="Path_172" data-name="Path 172" d="M671.7,270.673s-.722.2-1.954.469l-3.42-9.734-.481-3.55.59-12.285.493.152,0,.1-.164,2.89-.3,5.2-.058,1.035s.361,2.883,1.492,3.283a.751.751,0,0,0,.193.046l.108,2.635.012.294,2.958,8.023Z" transform="translate(-646.396 -245.361)" fill="#f8cc45" opacity="0.5" style="mix-blend-mode: screen;isolation: isolate"/>
              </g>
              <g id="Group_90" data-name="Group 90" transform="translate(0.962 11.434)">
                <path id="Path_173" data-name="Path 173" d="M672.166,298.206c-.044,1.087-.115,2.172-.189,3.257l-.005-.039c.294.759.568,1.526.854,2.289s.554,1.531.827,2.3l.408,1.151.393,1.157q.4,1.155.761,2.322-.466-1.13-.9-2.27l-.439-1.14-.424-1.145c-.281-.764-.569-1.526-.837-2.294s-.55-1.533-.811-2.3l-.007-.021,0-.018C671.906,300.366,672.023,299.285,672.166,298.206Z" transform="translate(-651.871 -296.762)" fill="#f09132"/>
                <path id="Path_174" data-name="Path 174" d="M592.424,292.206l.078,1.122.069,1.122.06,1.122c.019.374.043.748.057,1.123v.02l-.007.02-.878,2.412-.9,2.4c-.3.8-.613,1.6-.925,2.395s-.633,1.59-.96,2.381c.268-.813.539-1.625.825-2.432s.563-1.616.86-2.419l.882-2.41.906-2.4-.006.039c-.013-.374-.015-.749-.023-1.124l-.02-1.124-.011-1.124Z" transform="translate(-589.015 -292.206)" fill="#f09132"/>
              </g>
            </g>
          </g>
        </g>
        <g id="Group_97" data-name="Group 97" transform="translate(12.437 0.756)">
          <g id="Group_94" data-name="Group 94" transform="translate(0 2.616)">
            <path id="Path_175" data-name="Path 175" d="M628.184,311.362l-1.351-.772.217-.332.633-.2.639.555Z" transform="translate(-625.144 -297.411)" fill="#ab4d2e"/>
            <rect id="Rectangle_65" data-name="Rectangle 65" width="9.091" height="12.021" transform="translate(1.351 2.05) rotate(-8.08)" fill="#e0653c"/>
            <path id="Path_176" data-name="Path 176" d="M625.557,272.973l8.634-1.226-1.689-11.9-9,1.278,1.656,11.67C625.23,272.855,625.5,272.9,625.557,272.973Z" transform="translate(-622.613 -259.281)" fill="#fff"/>
            <rect id="Rectangle_66" data-name="Rectangle 66" width="9.091" height="12.021" transform="translate(0 1.278) rotate(-8.08)" fill="#e0653c"/>
          </g>
          <g id="Group_96" data-name="Group 96" transform="translate(3.956)">
            <path id="Path_177" data-name="Path 177" d="M673.534,253.027l-.315.1-3.542,1.174-.315.1-.878.291-.065.022.007-.106.007-.149.282-4.943.164-2.89c.2.084.4.171.587.26a4.109,4.109,0,0,1,.941.561C671.169,248.135,673.534,253.027,673.534,253.027Z" transform="translate(-660.677 -246.633)" fill="#35ae78"/>
            <g id="Group_95" data-name="Group 95" transform="translate(0 6.498)">
              <path id="Path_178" data-name="Path 178" d="M646.834,279.2l-.034,0q-2.754-.195-5.5-.452c-.007,0-.089,0-.168-.012a.825.825,0,0,1-.154-.017,17.583,17.583,0,0,1-2.948.922c-.541-.017.551-.881.551-.881a6.471,6.471,0,0,1-1.8.255c-.226-.137.736-.854,1.326-1,0,0-1.75.072-1.848-.212s1.538-.751,1.538-.751-1.5-.142-1.516-.469,2.26-.44,2.26-.44-.566-.671-.318-.912,2.488.893,2.493.9l3.189-.486.411-.063-.255-.373.878-.291.315-.1,3.542-1.174.145.342.1.238c.031.072.233.566.508,1.242A2.723,2.723,0,0,1,646.834,279.2Z" transform="translate(-636.25 -273.633)" fill="#d48149"/>
              <path id="Path_179" data-name="Path 179" d="M668.714,275.135,670,275.7l-1.523.12-.436-.178.411-.063-.255-.373.878-.291.315-.1,3.542-1.174.144.342Z" transform="translate(-660.388 -273.633)" fill="#d48149" opacity="0.5" style="mix-blend-mode: multiply;isolation: isolate"/>
            </g>
          </g>
        </g>
      </g>
      <g id="Group_103" data-name="Group 103" transform="translate(12.686 0)">
        <g id="Group_99" data-name="Group 99" transform="translate(0.376)">
          <path id="Path_180" data-name="Path 180" d="M629.889,230.259a5.243,5.243,0,0,1,1.349-.938,17.465,17.465,0,0,1-.223-4.387l-8,1.414s.3,2.587-.6,3.911l2.466.783,1.519,1.188,1.444-1.158Z" transform="translate(-622.412 -224.934)" fill="#d48149"/>
          <path id="Path_181" data-name="Path 181" d="M632.785,226.953c-.012.282-.024.664-.022,1.1a10.746,10.746,0,0,1-5.713,2.014,20.206,20.206,0,0,1-2.272.034,8.921,8.921,0,0,0,.077-1.379,20.455,20.455,0,0,0,2.6-.017A10.854,10.854,0,0,0,632.785,226.953Z" transform="translate(-624.209 -226.467)" fill="#c75434"/>
        </g>
        <g id="Group_102" data-name="Group 102" transform="translate(0 2.933)">
          <g id="Group_100" data-name="Group 100" transform="translate(0 0.194)">
            <path id="Path_182" data-name="Path 182" d="M625.2,242.184v0l-.733-.5-.469-.32-1.362,1.2c-1.442-.52-1.786-3.283-1.786-3.283l.982-1.355-.019.813s2.626.816,2.987,1.018c.209.115.31.914.36,1.564C625.189,241.765,625.2,242.138,625.2,242.184Z" transform="translate(-620.848 -237.931)" fill="#e6f3ff"/>
            <path id="Path_183" data-name="Path 183" d="M633.929,248.473l.531-1.183.672,2.005Z" transform="translate(-630.781 -245.037)" fill="#b5d0e8"/>
          </g>
          <g id="Group_101" data-name="Group 101" transform="translate(4.35)">
            <path id="Path_184" data-name="Path 184" d="M644.5,238.586s-1.616,2.849-3.058,3.369l-1.363-1.2-.267.19-.889.633v0c0-.043,0-.419.026-.864.034-.647.12-1.442.329-1.557.36-.2,4.341-1.244,4.341-1.244l-.083-.782Z" transform="translate(-638.925 -237.123)" fill="#e6f3ff"/>
            <path id="Path_185" data-name="Path 185" d="M640.1,248.473l-.531-1.183-.645,2.005Z" transform="translate(-638.926 -244.843)" fill="#b5d0e8"/>
          </g>
        </g>
      </g>
    </g>
    <g id="Group_132" data-name="Group 132" transform="translate(569.534 125.888)">
      <g id="Group_124" data-name="Group 124" transform="translate(3.673 2.135)">
        <g id="Group_108" data-name="Group 108">
          <path id="Path_186" data-name="Path 186" d="M612.426,146.915a1.82,1.82,0,0,0-1.074-.039c.419-3.736-.419-7.363-2.315-9.19-4.718-4.546-14.958-3.064-17.361-.465-2.034,2.2-1.742,5.653-1.566,8.112a11.069,11.069,0,0,1-.586,4.344c-1.257,3.709,1.073,9.683,10.921,9.021A10.855,10.855,0,0,0,609.4,153C614.065,153.272,614.278,147.517,612.426,146.915Z" transform="translate(-589.212 -134.761)" fill="#d48149"/>
          <g id="Group_107" data-name="Group 107" transform="translate(0 5.201)">
            <path id="Path_187" data-name="Path 187" d="M613.5,195.833a3.66,3.66,0,0,1-4.1,3.54,10.855,10.855,0,0,1-8.957,5.7c-9.848.662-12.177-5.314-10.921-9.022,0-.012.007-.024.012-.036-.431,3.66,2.354,8.408,11.19,7.814a10.856,10.856,0,0,0,8.957-5.7A3.578,3.578,0,0,0,613.5,195.833Z" transform="translate(-589.214 -186.337)" fill="#d48149" opacity="0.5" style="mix-blend-mode: screen;isolation: isolate"/>
            <g id="Group_106" data-name="Group 106" transform="translate(0.001)" opacity="0.5" style="mix-blend-mode: multiply;isolation: isolate">
              <g id="Group_105" data-name="Group 105">
                <path id="Path_188" data-name="Path 188" d="M599.957,162.69a7.9,7.9,0,0,1-6.5-5.355l-3.234,5.258c0,.036,0,.077.007.113a11.061,11.061,0,0,1-.585,4.344,6.094,6.094,0,0,0-.306,2.224s0,0,0,0c-.007-.051-.017-.1-.026-.152a6.27,6.27,0,0,1-.022-2.065,5.937,5.937,0,0,1,.236-.965,11.06,11.06,0,0,0,.585-4.344c0-.036,0-.077-.007-.113l3.234-5.258a7.8,7.8,0,0,0,5.5,5.133Z" transform="translate(-589.216 -156.373)" fill="#d48149"/>
                <path id="Path_189" data-name="Path 189" d="M631.238,167.881l.18,1.985a20.182,20.182,0,0,1-9.034-2.84l-2.036-2.154s5.535,3.971,10.95,4.031l-.18-1.985,1.324,3.73.043.748Z" transform="translate(-612.856 -162.827)" fill="#d48149"/>
              </g>
            </g>
          </g>
        </g>
        <g id="Group_123" data-name="Group 123" transform="translate(0.812 6.615)">
          <g id="Group_110" data-name="Group 110" transform="translate(0 9.051)" opacity="0.69">
            <g id="Group_109" data-name="Group 109">
              <circle id="Ellipse_29" data-name="Ellipse 29" cx="2.226" cy="2.226" r="2.226" fill="url(#radial-gradient)"/>
              <path id="Path_190" data-name="Path 190" d="M647.324,204.369a2.226,2.226,0,1,1-2.127-2.321A2.226,2.226,0,0,1,647.324,204.369Z" transform="translate(-630.773 -201.52)" fill="url(#radial-gradient-2)"/>
            </g>
          </g>
          <g id="Group_118" data-name="Group 118" transform="translate(0.93 3.724)">
            <g id="Group_113" data-name="Group 113" transform="translate(9.51 0.44)">
              <path id="Path_191" data-name="Path 191" d="M641.6,182.623a2.467,2.467,0,0,1-2.572,2.357c-1.361-.059-3.01-.951-2.95-2.312s1.8-2.677,3.165-2.618A2.467,2.467,0,0,1,641.6,182.623Z" transform="translate(-636.052 -179.929)" fill="#fff"/>
              <path id="Path_192" data-name="Path 192" d="M636.066,182.831a1.43,1.43,0,0,1-.09-.663,2.074,2.074,0,0,1,.162-.66,3.333,3.333,0,0,1,.824-1.079,3.677,3.677,0,0,1,1.171-.7,2.587,2.587,0,0,1,1.372-.139,2.527,2.527,0,0,1,2.008,3.115,2.424,2.424,0,0,1-.685,1.145,2.487,2.487,0,0,0,.484-2.446,2.38,2.38,0,0,0-3.1-1.454,3.73,3.73,0,0,0-1.125.628,3.174,3.174,0,0,0-.837.983A1.82,1.82,0,0,0,636.066,182.831Z" transform="translate(-635.968 -179.549)" fill="#784324"/>
              <g id="Group_112" data-name="Group 112" transform="translate(0.484 0.525)">
                <path id="Path_193" data-name="Path 193" d="M641.465,183.547a1.744,1.744,0,0,1-3.484-.152,1.525,1.525,0,0,1,.036-.278,1.742,1.742,0,0,1,2.436-1.229,1.741,1.741,0,0,1,.979,1.252A1.607,1.607,0,0,1,641.465,183.547Z" transform="translate(-637.98 -181.729)" fill="#541016"/>
                <g id="Group_111" data-name="Group 111" transform="translate(0.038 0.403)">
                  <path id="Path_194" data-name="Path 194" d="M639.766,184.665l-1.628-.276a1.717,1.717,0,0,1,.592-.986Z" transform="translate(-638.137 -183.403)" fill="#801821"/>
                  <path id="Path_195" data-name="Path 195" d="M640.672,188.645l-.194,1.8a1.736,1.736,0,0,1-1.147-.708Z" transform="translate(-639.044 -187.383)" fill="#801821"/>
                </g>
              </g>
              <path id="Path_196" data-name="Path 196" d="M643.176,186.014a.95.95,0,1,1-.908-.99A.95.95,0,0,1,643.176,186.014Z" transform="translate(-640 -183.706)" fill="#29080b"/>
              <path id="Path_197" data-name="Path 197" d="M648.435,189.792a.266.266,0,1,1-.254-.277A.266.266,0,0,1,648.435,189.792Z" transform="translate(-645.032 -187.117)" fill="#fff"/>
            </g>
            <g id="Group_117" data-name="Group 117">
              <path id="Path_198" data-name="Path 198" d="M596.734,180.589a2.467,2.467,0,0,0,2.357,2.572c1.361.059,3.081-.686,3.14-2.047s-1.564-2.823-2.926-2.882A2.467,2.467,0,0,0,596.734,180.589Z" transform="translate(-596.664 -178.107)" fill="#fff"/>
              <path id="Path_199" data-name="Path 199" d="M601.9,181.263a1.818,1.818,0,0,0-.074-1.281,3.171,3.171,0,0,0-.749-1.052,3.723,3.723,0,0,0-1.066-.724,2.38,2.38,0,0,0-3.214,1.179,2.485,2.485,0,0,0,.27,2.479,2.42,2.42,0,0,1-.583-1.2,2.526,2.526,0,0,1,2.271-2.929,2.586,2.586,0,0,1,1.354.257,3.676,3.676,0,0,1,1.106.8,3.33,3.33,0,0,1,.728,1.146,2.08,2.08,0,0,1,.1.672A1.427,1.427,0,0,1,601.9,181.263Z" transform="translate(-596.452 -177.722)" fill="#784324"/>
              <g id="Group_116" data-name="Group 116" transform="translate(0.196 0.549)">
                <g id="Group_115" data-name="Group 115">
                  <path id="Path_200" data-name="Path 200" d="M600.753,181.819a1.744,1.744,0,0,1-1.819,1.665,1.644,1.644,0,0,1-.194-.02,1.742,1.742,0,0,1-1.471-1.8,1.555,1.555,0,0,1,.036-.278,1.742,1.742,0,0,1,2.436-1.229,1.742,1.742,0,0,1,.979,1.252A1.613,1.613,0,0,1,600.753,181.819Z" transform="translate(-597.267 -180.001)" fill="#541016"/>
                  <g id="Group_114" data-name="Group 114" transform="translate(0.038 0.403)">
                    <path id="Path_201" data-name="Path 201" d="M599.053,182.937l-1.629-.276a1.719,1.719,0,0,1,.592-.986Z" transform="translate(-597.424 -181.675)" fill="#801821"/>
                    <path id="Path_202" data-name="Path 202" d="M599.96,186.917l-.194,1.8a1.736,1.736,0,0,1-1.147-.708Z" transform="translate(-598.332 -185.656)" fill="#801821"/>
                  </g>
                </g>
                <path id="Path_203" data-name="Path 203" d="M602.464,184.286a.95.95,0,1,1-.907-.99A.95.95,0,0,1,602.464,184.286Z" transform="translate(-599.771 -182.502)" fill="#29080b"/>
                <path id="Path_204" data-name="Path 204" d="M607.722,188.064a.266.266,0,1,1-.254-.277A.266.266,0,0,1,607.722,188.064Z" transform="translate(-604.803 -185.913)" fill="#fff"/>
              </g>
            </g>
          </g>
          <g id="Group_119" data-name="Group 119" transform="translate(1.228)">
            <path id="Path_205" data-name="Path 205" d="M650.183,165.381a1.665,1.665,0,0,0,.622.652,1.922,1.922,0,0,0,.706.347.755.755,0,0,0,.724-.213.744.744,0,0,0,.06-.768,1.728,1.728,0,0,0-.528-.608,1.928,1.928,0,0,0-.7-.389C650.41,164.229,649.9,164.72,650.183,165.381Z" transform="translate(-637.489 -163.856)" fill="#784324"/>
            <path id="Path_206" data-name="Path 206" d="M599.907,163.316a1.666,1.666,0,0,1-.676.6,1.917,1.917,0,0,1-.733.284.754.754,0,0,1-.7-.275.745.745,0,0,1,.007-.771,1.731,1.731,0,0,1,.579-.56,1.93,1.93,0,0,1,.727-.327C599.781,162.148,600.251,162.682,599.907,163.316Z" transform="translate(-597.691 -162.247)" fill="#541016"/>
          </g>
          <path id="Path_207" data-name="Path 207" d="M622.607,196.436a1.539,1.539,0,0,1-.406-.428.6.6,0,0,1-.087-.31.41.41,0,0,1,.043-.174.721.721,0,0,1,.112-.137,1.244,1.244,0,0,1,.584-.225l.3-.029.295-.007a2.779,2.779,0,0,1,.3.013,1.791,1.791,0,0,1,.3.038,1.008,1.008,0,0,1,.571.269.515.515,0,0,1,.093.153.461.461,0,0,1,.015.176.65.65,0,0,1-.117.3,1.176,1.176,0,0,1-.449.382,1.315,1.315,0,0,0,.347-.441c.077-.163.1-.346-.026-.438A.9.9,0,0,0,624,195.4a1.872,1.872,0,0,0-.275-.028,2.725,2.725,0,0,0-.281-.007h-.283l-.278.02a1.2,1.2,0,0,0-.5.145c-.135.083-.146.253-.079.424A1.842,1.842,0,0,0,622.607,196.436Z" transform="translate(-615.008 -187.213)" fill="#7a252d"/>
          <g id="Group_121" data-name="Group 121" transform="translate(19.523 6.093)">
            <g id="Group_120" data-name="Group 120">
              <path id="Path_208" data-name="Path 208" d="M676.907,189.688a2.654,2.654,0,0,0,.046-.927,1.587,1.587,0,0,0-.122-.432,1.039,1.039,0,0,0-.268-.339.882.882,0,0,0-.8-.179,1.779,1.779,0,0,0-.782.4,2.66,2.66,0,0,0-.59.678,3.135,3.135,0,0,0-.219.4c-.061.139-.111.284-.166.428a5.344,5.344,0,0,0-.194,1.847q-.04-.232-.073-.469c-.018-.157-.017-.316-.027-.476s.021-.318.031-.478.056-.316.084-.475a3.112,3.112,0,0,1,1-1.642,1.972,1.972,0,0,1,.891-.433,1.282,1.282,0,0,1,.513.01,1.54,1.54,0,0,1,.245.1,1.512,1.512,0,0,1,.2.156,1.2,1.2,0,0,1,.285.417,1.652,1.652,0,0,1,.1.482A2.4,2.4,0,0,1,676.907,189.688Z" transform="translate(-673.714 -187.567)" fill="#c75434"/>
              <path id="Path_209" data-name="Path 209" d="M676.189,196.163q.179-.437.333-.872a3.8,3.8,0,0,0,.212-.875.67.67,0,0,0-.276-.705,1.843,1.843,0,0,0-.878-.144,1.406,1.406,0,0,1,.962-.024.688.688,0,0,1,.371.382,1.159,1.159,0,0,1,.061.511,2.8,2.8,0,0,1-.278.926A3.908,3.908,0,0,1,676.189,196.163Z" transform="translate(-675.13 -192.047)" fill="#c75434"/>
            </g>
          </g>
          <g id="Group_122" data-name="Group 122" transform="translate(4.805 9.919)">
            <path id="Path_210" data-name="Path 210" d="M618.435,206.145c-.051.029-.1.058-.159.084a5.482,5.482,0,0,1-2.426.481,4.276,4.276,0,0,1-2.134-.45c-.048-.026-.094-.053-.137-.082-1.307-.825-1.133-2.351-.724-2.57a1.516,1.516,0,0,1,.587-.1h.012a9.361,9.361,0,0,1,1.131.046,14.913,14.913,0,0,0,2.876-.017,9.36,9.36,0,0,1,1.2-.067h.019a2.367,2.367,0,0,1,.284.022C619.569,203.577,619.99,205.243,618.435,206.145Z" transform="translate(-612.556 -203.465)" fill="#541016"/>
            <path id="Path_211" data-name="Path 211" d="M621.27,204.345a15.775,15.775,0,0,1-4.211.2.9.9,0,0,1-.823-1.042h.012a9.36,9.36,0,0,1,1.131.046,14.914,14.914,0,0,0,2.876-.017,9.359,9.359,0,0,1,1.2-.067h.019C621.494,203.823,621.472,204.225,621.27,204.345Z" transform="translate(-615.35 -203.465)" fill="#fff"/>
            <path id="Path_212" data-name="Path 212" d="M621.937,213.28a5.482,5.482,0,0,1-2.426.481,4.276,4.276,0,0,1-2.134-.45A4.928,4.928,0,0,1,621.937,213.28Z" transform="translate(-616.217 -210.516)" fill="#f7957d"/>
          </g>
        </g>
      </g>
      <g id="Group_131" data-name="Group 131" transform="translate(0 0)">
        <g id="Group_128" data-name="Group 128">
          <path id="Path_213" data-name="Path 213" d="M608.683,151.817c-.159.106-.32.209-.484.313-.26.161-.524.32-.794.467q-.552.314-1.126.59c-.582.282-1.177.537-1.786.76l-1.81-3.335a24,24,0,0,0,.97,3.627,20.68,20.68,0,0,1-3.571.813c-.1.014-.207.026-.313.039-.609.072-1.22.118-1.831.132-.219.007-.436.01-.652.007a7.133,7.133,0,0,0-1.133-.505,7.051,7.051,0,0,0-1.018-.272c-.012,0-.055-.007-.12-.012a5.054,5.054,0,0,0-.525-.14,14.767,14.767,0,0,1-.3-4.089c.149-.1.3-.2.438-.306a11.084,11.084,0,0,0,1.348-1.179,12.315,12.315,0,0,0,1.839-2.464,5.1,5.1,0,0,0,.638,0,3.956,3.956,0,0,0,1.242-.272,3.706,3.706,0,0,0,2.214-3.191c.113-1.23-.3-2.37-1.069-2.621a1.891,1.891,0,0,0-.8-.089c-.1.13-.214.267-.332.407-.991,1.186-2.38,2.6-2.38,2.6l-.12-2.046-1.068-3.011-.255-.72.181,1.985a.685.685,0,0,1-.07,0h-.1a18.168,18.168,0,0,1-6.914-1.834,26.278,26.278,0,0,1-3.87-2.195l2.946,3.116,0,0,.18.19a8.237,8.237,0,0,1-4.828-2.512,0,0,0,0,1,0,0,7.349,7.349,0,0,1-1.668-2.84l-3.138,5.1-.1.156c0,.036,0,.077.007.113l.007.123a10.808,10.808,0,0,1-.3,3.218c-.082.337-.178.674-.291,1a6.287,6.287,0,0,0,1.085,5.9c.026.036.055.07.084.1a8.593,8.593,0,0,0,5.03,2.763,14.885,14.885,0,0,0,2.125.274,7.6,7.6,0,0,1-.25,2.195l-.866.017a5.221,5.221,0,0,0-.917.135.009.009,0,0,1-.007,0,3.04,3.04,0,0,0-.4.089A12.8,12.8,0,0,0,580.2,156c-.508-.067-1.013-.152-1.516-.248a11.759,11.759,0,0,1-1.206-.3c-.058-.014-.115-.034-.171-.051a4.028,4.028,0,0,1-.072-.412,28.382,28.382,0,0,1,.055-4.445c-.965,1.372-.9,3.817-.857,4.544-.075-.029-.149-.06-.221-.091-.224-.1-.448-.2-.667-.306-.416-.2-.828-.433-1.239-.688-.342-2.2,1.016-4.476.38-6.608-.181-.611-.517-1.17-.662-1.79a4.824,4.824,0,0,1,.821-3.456,24.653,24.653,0,0,0,1.872-3.117c1.032-2.505.33-5.516.953-8.076a5.815,5.815,0,0,1,.744-1.8c1.377-2.151,4.139-2.914,6.681-3.16a25.2,25.2,0,0,1,2.664-.118,20.027,20.027,0,0,1,2.63.2,16.773,16.773,0,0,1,1.788.351,14.349,14.349,0,0,1,6.151,3.263c.07.065.14.13.207.2.07.014.137.031.2.051a3.554,3.554,0,0,1,1.1.5c2.231,1.545,2.017,5.408,3.333,7.569a32.8,32.8,0,0,0,2.505,3.22,4.642,4.642,0,0,1,1.3,3.191c-.1.987-.768,1.877-.717,2.866C606.366,149.035,608.563,150.084,608.683,151.817Z" transform="translate(-573.95 -125.888)" fill="#541016"/>
          <g id="Group_127" data-name="Group 127" transform="translate(0 0.001)">
            <g id="Group_125" data-name="Group 125" transform="translate(0 3.218)">
              <path id="Path_214" data-name="Path 214" d="M594.2,227.158a12.8,12.8,0,0,0-3.617,1.586c-.508-.067-1.013-.152-1.516-.248a11.779,11.779,0,0,1-1.206-.3c-.058-.014-.116-.034-.171-.051a4.008,4.008,0,0,1-.072-.411,8.215,8.215,0,0,1,.2-.979c.046-.173.1-.347.154-.52.395-1.237.972-2.419,1.321-3.675a8.148,8.148,0,0,0,.193-.881,8.594,8.594,0,0,0,5.03,2.763A7,7,0,0,0,594.2,227.158Z" transform="translate(-584.329 -201.848)" fill="#541016" opacity="0.5" style="mix-blend-mode: multiply;isolation: isolate"/>
              <path id="Path_215" data-name="Path 215" d="M578.609,154.337c-.022.13-.048.262-.082.392-.012.053-.026.1-.041.156-.486,1.7-1.918,2.965-2.638,4.58a10.05,10.05,0,0,0-.486,5.2c.2,1.867.647,3.858.274,5.732a2.173,2.173,0,0,1-.087.315c-.416-.2-.828-.433-1.239-.688-.342-2.2,1.016-4.476.38-6.608-.181-.611-.517-1.17-.662-1.79a4.824,4.824,0,0,1,.821-3.456,24.652,24.652,0,0,0,1.872-3.116c1.032-2.505.33-5.516.953-8.076a10.378,10.378,0,0,0,.111,1.47C578.077,150.414,578.919,152.407,578.609,154.337Z" transform="translate(-573.95 -145.118)" fill="#541016" opacity="0.5" style="mix-blend-mode: multiply;isolation: isolate"/>
              <path id="Path_216" data-name="Path 216" d="M630.11,150.844h-.1a18.167,18.167,0,0,1-6.914-1.834c-.079-.046-.159-.1-.238-.147a9.982,9.982,0,0,1-2.991-3.506,7.578,7.578,0,0,1-.929-2.151,2.714,2.714,0,0,1,.412-2.113,11.634,11.634,0,0,0,4.433,5.21,15.367,15.367,0,0,0,3.09,1.458,6.926,6.926,0,0,1,1.935.883,3.1,3.1,0,0,1,.284.245c.007.007.012.014.019.022A3.84,3.84,0,0,1,630.11,150.844Z" transform="translate(-608.064 -140.653)" fill="#541016" opacity="0.5" style="mix-blend-mode: multiply;isolation: isolate"/>
              <path id="Path_217" data-name="Path 217" d="M616.128,148.735a8.236,8.236,0,0,1-4.828-2.512,0,0,0,0,1,0,0,7.328,7.328,0,0,1-.58-2.221,11.517,11.517,0,0,1,.623-4.736l.046.469a6.593,6.593,0,0,0,.012,2.893,8.533,8.533,0,0,0,2.091,3.749,17.547,17.547,0,0,0,2.455,2.168l0,0Z" transform="translate(-601.834 -139.263)" fill="#541016" opacity="0.5" style="mix-blend-mode: multiply;isolation: isolate"/>
              <path id="Path_218" data-name="Path 218" d="M681.708,164.629q-.552.314-1.126.59a7.251,7.251,0,0,1-2.626-4.257c-.2-1.285.082-2.635-.3-3.879a5.817,5.817,0,0,0-1.446-2.253c.113-1.23-.3-2.37-1.069-2.621a1.89,1.89,0,0,0-.8-.089c-.1.13-.214.267-.332.407a10.332,10.332,0,0,1-2.207-6.055,13.667,13.667,0,0,1,.83-4.738c.07.065.14.13.207.2.07.014.137.031.2.051a15.961,15.961,0,0,0,.188,3.98,9.632,9.632,0,0,0,2.71,5.287c.664.623,1.442,1.131,2.041,1.817a5.016,5.016,0,0,1,1.2,2.662,30.435,30.435,0,0,1-.063,3.242,7.453,7.453,0,0,0,1.247,3.976A20.006,20.006,0,0,0,681.708,164.629Z" transform="translate(-648.253 -141.139)" fill="#541016" opacity="0.5" style="mix-blend-mode: multiply;isolation: isolate"/>
              <path id="Path_219" data-name="Path 219" d="M672.94,218.476c-.1.014-.207.026-.313.038-.609.072-1.22.118-1.831.132a5.286,5.286,0,0,1-.891-3.193,5.979,5.979,0,0,1,.1-.8c.318-1.658,1.227-3.22,1.3-4.917,0-.017,0-.031,0-.048a3.956,3.956,0,0,0,1.242-.272,5.556,5.556,0,0,1,.291,3.193c-.149.7-.433,1.362-.578,2.06A5.41,5.41,0,0,0,672.94,218.476Z" transform="translate(-646.808 -192.531)" fill="#541016" opacity="0.5" style="mix-blend-mode: multiply;isolation: isolate"/>
            </g>
            <g id="Group_126" data-name="Group 126" transform="translate(2.015)">
              <path id="Path_220" data-name="Path 220" d="M638.789,137.319l.18,1.985a.682.682,0,0,1-.07,0h-.1a4.2,4.2,0,0,0-.479-1.348,3.881,3.881,0,0,0-.421-.585l-.019-.022a8.527,8.527,0,0,0-1.218-1.117,21.578,21.578,0,0,1-5.042-4.921,6.842,6.842,0,0,1-.958-5.417,20.03,20.03,0,0,1,2.63.2c.176.847.106,1.735.351,2.565.44,1.485,1.781,2.484,2.823,3.631a10.422,10.422,0,0,1,2.573,5.752Z" transform="translate(-618.868 -125.893)" fill="#541016" opacity="0.5" style="mix-blend-mode: screen;isolation: isolate"/>
              <path id="Path_221" data-name="Path 221" d="M585.378,199.475c-.063.209-.137.416-.217.621-.233.6-.537,1.172-.748,1.781a9.589,9.589,0,0,0-.433,1.983c-.012.091-.022.183-.031.274a17.741,17.741,0,0,0-.108,1.961c-.058-.014-.115-.034-.171-.051a4.009,4.009,0,0,1-.072-.412,28.382,28.382,0,0,1,.055-4.445c-.965,1.372-.9,3.817-.857,4.544-.075-.029-.149-.06-.221-.091.1-1.67.59-3.364.236-5a18.394,18.394,0,0,1-.469-1.908,7.273,7.273,0,0,1,1.206-3.882q.567-1.115,1.037-2.277c-.082.337-.178.674-.291,1A6.287,6.287,0,0,0,585.378,199.475Z" transform="translate(-582.323 -176.526)" fill="#541016" opacity="0.5" style="mix-blend-mode: screen;isolation: isolate"/>
              <path id="Path_222" data-name="Path 222" d="M665.011,227.156c-.609.072-1.22.118-1.831.132-.219.007-.436.01-.652.007a7.133,7.133,0,0,0-1.133-.505c-.2-.712-.318-1.466-.585-2.154a13.117,13.117,0,0,1-.89-2.192,3.108,3.108,0,0,1-.051-.472,11.074,11.074,0,0,0,1.348-1.179,3.507,3.507,0,0,0,1.174,2.5c.472.431,1.035.773,1.48,1.237A4.406,4.406,0,0,1,665.011,227.156Z" transform="translate(-641.206 -197.955)" fill="#541016" opacity="0.5" style="mix-blend-mode: screen;isolation: isolate"/>
              <path id="Path_223" data-name="Path 223" d="M689.829,166.218c-.159.106-.32.209-.484.313a11.593,11.593,0,0,1-3.073-5.229c-.3-1.586.012-3.254-.38-4.82a11.509,11.509,0,0,0-2.277-3.98,14.777,14.777,0,0,1-2.479-4.264,5.959,5.959,0,0,1-.142-3.384c2.231,1.545,2.017,5.408,3.333,7.569a32.8,32.8,0,0,0,2.505,3.22,4.642,4.642,0,0,1,1.3,3.191c-.1.987-.768,1.877-.717,2.866C687.512,163.436,689.709,164.486,689.829,166.218Z" transform="translate(-657.111 -140.29)" fill="#541016" opacity="0.5" style="mix-blend-mode: screen;isolation: isolate"/>
            </g>
          </g>
        </g>
        <g id="Group_130" data-name="Group 130" transform="translate(4.426 2.403)">
          <path id="Path_224" data-name="Path 224" d="M612.2,145.721l-.3-.44a15.392,15.392,0,0,0-2.623-2.926,20.473,20.473,0,0,0-4.539-2.989,12.365,12.365,0,0,0-4.147-1.165,16.15,16.15,0,0,0-2.339-.036q-.394.022-.751.065a6.236,6.236,0,0,0-5.152,4.183,6.118,6.118,0,0,1,3.538-5.537,12.477,12.477,0,0,1,9.795,0,11,11,0,0,1,1.362.727,11.421,11.421,0,0,1,5.157,8.108Z" transform="translate(-592.341 -135.873)" fill="#e0653c"/>
          <g id="Group_129" data-name="Group 129" transform="translate(0 1.001)">
            <path id="Path_225" data-name="Path 225" d="M596.453,140.408c.587.327,1.182.635,1.793.914q-.394.022-.751.065a6.236,6.236,0,0,0-5.152,4.183,6.118,6.118,0,0,1,3.538-5.537A3.356,3.356,0,0,0,596.453,140.408Z" transform="translate(-592.341 -140.033)" fill="#e0653c" opacity="0.5" style="mix-blend-mode: multiply;isolation: isolate"/>
            <path id="Path_226" data-name="Path 226" d="M651.293,151.165l-.3-.44a15.4,15.4,0,0,0-2.623-2.926,20.474,20.474,0,0,0-4.539-2.989q.1-.011.195-.029a3.038,3.038,0,0,0,1.677-.744,1.437,1.437,0,0,0,.433-.994,11.421,11.421,0,0,1,5.157,8.108Z" transform="translate(-631.437 -142.319)" fill="#e0653c" opacity="0.5" style="mix-blend-mode: multiply;isolation: isolate"/>
          </g>
        </g>
      </g>
    </g>
  </g>
</svg>
