<svg xmlns="http://www.w3.org/2000/svg" width="62.819" height="60.248" viewBox="0 0 62.819 60.248">
  <g id="Group_65" data-name="Group 65" transform="translate(0.027 -2.598)">
    <path id="Path_133" data-name="Path 133" d="M83.283,69.393a.981.981,0,0,0,.981.844.688.688,0,0,0,.142,0l8.5-1.222a.981.981,0,0,0,.835-1.108V67.9l-.594-4.033a.951.951,0,0,0-.383-.643.981.981,0,0,0-.726-.186l-8.5,1.222A.981.981,0,0,0,82.7,65.37v.005Zm8.056-4.288.3,2.09-6.555.962-.28-2.09Z" transform="translate(-42.134 -30.783)" fill="#666"/>
    <path id="Path_134" data-name="Path 134" d="M62.785,49.4l-1.261-8.743a.981.981,0,0,0-1.113-.829h0l-3.4.491L52.256,7.3a1.01,1.01,0,0,0-.383-.648.98.98,0,0,0-.731-.182L39.127,8.192h-.132l-9.714,1.4-.093.025h-.1L18.139,11.209,17,3.443a.981.981,0,0,0-1.108-.835h-.005L.83,4.758a.981.981,0,0,0-.849,1.1c0,.012,0,.024.005.036L.55,9.777a.981.981,0,0,0,1.109.829L9.43,9.487l4.661,32.38a11.181,11.181,0,0,0,5.367,20.979,11.318,11.318,0,0,0,1.619-.118,11.192,11.192,0,0,0,9.047-7.644L61.941,50.5a.995.995,0,0,0,.844-1.094ZM38.3,10.287,40.5,25.5l-3.655-2.139a.981.981,0,0,0-1.212.177l-2.9,3.081L30.532,11.406Zm-9.714,1.4,2.487,17.24a.981.981,0,0,0,.672.795,1.03,1.03,0,0,0,.3.044.982.982,0,0,0,.711-.309l3.763-3.994,4.739,2.767a.981.981,0,0,0,1.472-.981l-2.487-17.24L50.441,8.536l4.622,32.037L28.044,44.5a11.108,11.108,0,0,0-5.657-3.616L18.394,13.152ZM11.241,8.251a1.01,1.01,0,0,0-.383-.648.981.981,0,0,0-.726-.182l-7.771,1.1-.28-1.962L15.2,4.694l5.161,35.815a10.877,10.877,0,0,0-4.386.554ZM20.8,60.786a9.22,9.22,0,0,1-2.635-18.251,9.421,9.421,0,0,1,1.325-.1A9.224,9.224,0,0,1,20.8,60.786Zm9.778-7.752a11.155,11.155,0,0,0-.025-2.968,11.287,11.287,0,0,0-1.271-3.783l27.033-3.9h0l3.4-.491.981,6.8Z" transform="translate(0 0)" fill="#666"/>
  </g>
</svg>
