<svg xmlns="http://www.w3.org/2000/svg" width="59.845" height="58.435" viewBox="0 0 59.845 58.435">
  <g id="Group_72" data-name="Group 72" transform="translate(-6.558 -7.582)">
    <path id="Path_147" data-name="Path 147" d="M70.986,63.418a6.544,6.544,0,1,0,6.544,6.544A6.551,6.551,0,0,0,70.986,63.418Zm0,11.021a4.477,4.477,0,1,1,4.477-4.477A4.482,4.482,0,0,1,70.986,74.439Z" transform="translate(-18.013 -17.376)" fill="#666"/>
    <path id="Path_148" data-name="Path 148" d="M63.688,48.8a.649.649,0,0,1-.46-1.109,2.715,2.715,0,0,0,0-3.842l-1.515-1.517a2.7,2.7,0,0,0-1.7-.773A27.055,27.055,0,0,0,55.8,18.942c-.012-.015-.016-.034-.029-.048l-.011-.008C40.325-2.49,6.558,8.494,6.558,34.752c0,19.984,19.549,31.038,35.664,25.866a2.676,2.676,0,0,0,.5.707l1.516,1.516a2.718,2.718,0,0,0,3.841,0,.649.649,0,0,1,1.11.459A2.719,2.719,0,0,0,51.9,66.018h2.144A2.719,2.719,0,0,0,56.76,63.3a.649.649,0,0,1,1.11-.459,2.72,2.72,0,0,0,3.841,0l1.515-1.516a2.715,2.715,0,0,0,0-3.842.65.65,0,0,1,.46-1.11A2.719,2.719,0,0,0,66.4,53.657V51.513A2.717,2.717,0,0,0,63.688,48.8Zm-6.106-6.3a.642.642,0,0,1-.82-.624,2.719,2.719,0,0,0-2.716-2.716H51.9a2.719,2.719,0,0,0-2.716,2.717.646.646,0,0,1-.932.583,31.793,31.793,0,0,0-.384-16.812,32.6,32.6,0,0,0,6.931-4.5A25,25,0,0,1,57.582,42.494Zm-11.25-.942a2.7,2.7,0,0,0-1.6.393,32.591,32.591,0,0,0-23.4.531,29.778,29.778,0,0,1,.156-15.993,32.6,32.6,0,0,0,24.473,0A29.756,29.756,0,0,1,46.332,41.553ZM53.6,19.446a30.523,30.523,0,0,1-6.389,4.221A31.775,31.775,0,0,0,37.291,9.908,25.1,25.1,0,0,1,53.6,19.446Zm-19.875-9.6a29.821,29.821,0,0,1,11.6,14.665,30.53,30.53,0,0,1-23.193,0A29.816,29.816,0,0,1,33.726,9.847Zm-3.565.06A31.785,31.785,0,0,0,20.24,23.666a30.532,30.532,0,0,1-6.389-4.221A25.1,25.1,0,0,1,30.161,9.907ZM12.651,21.14a32.574,32.574,0,0,0,6.931,4.5,31.82,31.82,0,0,0-.155,17.691A32.633,32.633,0,0,0,12.4,47.974,25.009,25.009,0,0,1,12.651,21.14ZM13.573,49.7a30.61,30.61,0,0,1,6.48-4.376A31.772,31.772,0,0,0,30.161,59.6,25.111,25.111,0,0,1,13.573,49.7Zm20.152,9.957A29.809,29.809,0,0,1,21.942,44.463a30.515,30.515,0,0,1,21.071-.912c-1.493,1.493-1.315,3.119-.3,4.138a.65.65,0,0,1-.46,1.11,2.719,2.719,0,0,0-2.716,2.716v2.144a2.678,2.678,0,0,0,.131.79A30.025,30.025,0,0,1,33.726,59.656Zm7.283-3.6a2.681,2.681,0,0,0,1.248.318.65.65,0,0,1,.46,1.11,2.7,2.7,0,0,0-.6.912,24.717,24.717,0,0,1-4.826,1.2A31.651,31.651,0,0,0,41.009,56.056Zm23.328-2.4a.65.65,0,0,1-.65.65,2.718,2.718,0,0,0-1.921,4.637.65.65,0,0,1,0,.919L60.252,61.38a.651.651,0,0,1-.92,0A2.718,2.718,0,0,0,54.7,63.3a.65.65,0,0,1-.65.65H51.9a.65.65,0,0,1-.65-.65,2.718,2.718,0,0,0-4.637-1.92.651.651,0,0,1-.919,0L44.18,59.864a.652.652,0,0,1,0-.92,2.718,2.718,0,0,0-1.921-4.637.65.65,0,0,1-.65-.65V51.513a.65.65,0,0,1,.65-.65,2.718,2.718,0,0,0,1.921-4.637.652.652,0,0,1,0-.92L45.7,43.791a.651.651,0,0,1,.919,0,2.718,2.718,0,0,0,4.637-1.921.65.65,0,0,1,.65-.65h2.144a.65.65,0,0,1,.65.65,2.718,2.718,0,0,0,4.637,1.92.652.652,0,0,1,.92,0l1.515,1.517a.65.65,0,0,1,0,.919,2.718,2.718,0,0,0,1.921,4.637.65.65,0,0,1,.65.65Z" transform="translate(0 0)" fill="#666"/>
  </g>
</svg>
