<svg xmlns="http://www.w3.org/2000/svg" width="63.188" height="60.336" viewBox="0 0 63.188 60.336">
  <path id="Path_33" data-name="Path 33" d="M56.935,35.193A19.268,19.268,0,0,0,64.2,20.418C64.2,12.412,58.071,5.9,50.533,5.9s-13.67,6.512-13.67,14.518a19.268,19.268,0,0,0,7.268,14.775,11.448,11.448,0,0,0-6.34,5.233,29.157,29.157,0,0,0-5.182,3.008q-.794-.575-1.605-1.086c-.568-3.095-3.244-5.73-6.99-7.154q.3-.221.593-.459h5.645a3.955,3.955,0,0,0,3.822-4.977L31.222,19.07A14.661,14.661,0,0,0,24.759,8.048V4.809a1.583,1.583,0,0,0-.746-1.364,1.458,1.458,0,0,0-1.431-.06h0L17.619,5.9h-.012L12.644,3.385a1.458,1.458,0,0,0-1.431.06,1.583,1.583,0,0,0-.746,1.364V8.048A14.66,14.66,0,0,0,4,19.071L1.151,29.757a3.955,3.955,0,0,0,3.822,4.977h5.645q.292.239.594.459C6.98,36.8,4.1,39.953,4.1,43.571V51.76a.967.967,0,0,0,1.935,0V43.571c0-3.218,3.084-5.967,7.414-7.065a9.921,9.921,0,0,0,8.335,0c3.055.775,5.481,2.372,6.648,4.377a23.721,23.721,0,0,0-8.567-2.472.967.967,0,0,0-1.047.964v1.876L16.832,40.8a.966.966,0,0,0-1.18.94l-.07,17.206a.967.967,0,0,0,.755.947l13.882,3.137a1.6,1.6,0,0,0,1.185.528h2.41A1.6,1.6,0,0,0,35,63.034L48.882,59.9a.967.967,0,0,0,.754-.947l-.069-17.206a.967.967,0,0,0-1.181-.94l-1.983.448V39.376a.967.967,0,0,0-1.047-.964,22.064,22.064,0,0,0-4.3.818,12.179,12.179,0,0,1,5.312-2.723,9.921,9.921,0,0,0,8.335,0c4.33,1.1,7.414,3.847,7.414,7.065V51.76a.967.967,0,0,0,1.935,0V43.571C64.05,39.953,61.167,36.8,56.935,35.193ZM32.206,30.256A2.021,2.021,0,0,1,30.253,32.8H26.582a20.059,20.059,0,0,0,4.145-8.082ZM22.824,5.433V9.98L18.336,7.706Zm-10.422,0L16.89,7.707,12.4,9.98ZM10.467,10.46V10.6a1.583,1.583,0,0,0,.746,1.364,1.458,1.458,0,0,0,1.431.059l4.969-2.517,4.968,2.517a1.459,1.459,0,0,0,1.431-.059,1.583,1.583,0,0,0,.746-1.364V10.46a12.708,12.708,0,0,1,4.27,7.092c-5.7.357-11.271-4.821-11.328-4.876a.968.968,0,0,0-1.416.1c-.054.068-5.351,6.518-10.125,4.937A12.718,12.718,0,0,1,10.467,10.46ZM4.973,32.8A2.022,2.022,0,0,1,3.02,30.256L4.5,24.717A20.056,20.056,0,0,0,8.644,32.8Zm12.64,2.69c-6.5,0-11.735-8.245-11.735-15.071,0-.259.022-.512.036-.768a6.865,6.865,0,0,0,1.825.252,9.858,9.858,0,0,0,4.844-1.461,20.346,20.346,0,0,0,4.545-3.7,23.833,23.833,0,0,0,6.166,3.7A13.636,13.636,0,0,0,29.3,19.464c.022.316.045.632.045.954C29.347,27.244,24.113,35.489,17.613,35.489Zm3.137,4.968a23.613,23.613,0,0,1,8.685,3.2L20.75,41.689Zm9.042,20.5L17.52,58.181l.061-15.225,12.211,2.76Zm3.7.673H31.727V45.988h1.765ZM47.638,42.956,47.7,58.181,35.427,60.954V45.716Zm-3.169-2.5v1.233l-8.684,1.962A23.62,23.62,0,0,1,44.469,40.457ZM50.533,7.835a11.955,11.955,0,0,1,11.416,9.717c-5.7.355-11.27-4.821-11.328-4.876a.968.968,0,0,0-1.416.1c-.055.068-5.35,6.522-10.125,4.937C40.24,12.07,44.931,7.835,50.533,7.835Zm0,27.654c-6.5,0-11.735-8.245-11.735-15.071,0-.259.022-.512.036-.768a6.865,6.865,0,0,0,1.825.252A9.856,9.856,0,0,0,45.5,18.441a20.331,20.331,0,0,0,4.545-3.7,23.833,23.833,0,0,0,6.166,3.7,13.636,13.636,0,0,0,6.009,1.023c.022.316.045.632.045.954C62.268,27.244,57.033,35.489,50.533,35.489Z" transform="translate(-1.015 -3.226)" fill="#666"/>
</svg>
