<svg xmlns="http://www.w3.org/2000/svg" width="65.496" height="32.114" viewBox="0 0 65.496 32.114">
  <g id="Group_66" data-name="Group 66" transform="translate(-3.385 -8.402)">
    <path id="Path_135" data-name="Path 135" d="M8.4,8.4a4.951,4.951,0,0,0-2.352.8,6.54,6.54,0,0,0-2.668,5.056V27.519a12.411,12.411,0,0,0,4.534,8.815l.22.17h3.04a6.145,6.145,0,0,0,11.526,0H48.842a6.148,6.148,0,0,0,11.563-.09,27.226,27.226,0,0,0,4.774-.679,8.024,8.024,0,0,0,2.422-.968,2.567,2.567,0,0,0,1.281-2.039v-6.51c0-4.827.033-9.118-1.321-12.4a8.063,8.063,0,0,0-3.293-3.969,7.932,7.932,0,0,0-1.141-.569l-.309-.123A13.868,13.868,0,0,0,58.11,8.4Zm.027,1.663H58.1a12.863,12.863,0,0,1,3.719.509c-.033.765-.13,3.167-.193,6.28a67.693,67.693,0,0,0,.226,9.517,2.05,2.05,0,0,0,1.51,1.49,7.725,7.725,0,0,0,2.059.333,17.551,17.551,0,0,0,1.793-.01v.945a17.883,17.883,0,0,1-4.1-.156l-.08-.007a.414.414,0,0,0-.4.416v2.462a.42.42,0,0,0,.22.373,6.514,6.514,0,0,0,4.361.359v.14c0,.206-.106.386-.526.662a6.881,6.881,0,0,1-1.923.748,25.3,25.3,0,0,1-4.022.6c.007-.12.017-.24.017-.363a6.156,6.156,0,0,0-11.573-2.931H22.356a6.156,6.156,0,0,0-11.573,2.931c0,.163.013.323.027.482H8.764a10.338,10.338,0,0,1-3.719-7.348V14.413c.246-2.309,1.134-3.3,1.926-3.819a2.986,2.986,0,0,1,1.46-.526ZM26.275,11.08a.815.815,0,0,0-.126.013H10.856a.833.833,0,0,0-.782.552,16.029,16.029,0,0,0,.007,11.666.833.833,0,0,0,.775.536H26.145a.77.77,0,0,0,.276,0H43.48a.77.77,0,0,0,.276,0H59.563a.832.832,0,0,0,.832-.832V12.041a.787.787,0,0,0-.033-.363.809.809,0,0,0-.063-.156v-.007l-.047-.067v-.007l-.047-.057-.007-.007-.05-.053-.007-.007-.053-.05h-.007l-.047-.033-.027-.02-.063-.04h-.007a.829.829,0,0,0-.386-.1h0a.858.858,0,0,0-.13.013H43.762a.759.759,0,0,0-.15-.013.9.9,0,0,0-.133.013H26.428a.793.793,0,0,0-.153-.013Zm37.184.226a6.305,6.305,0,0,1,2.565,3.147c1.144,2.778,1.194,6.942,1.194,11.766v.3a16.651,16.651,0,0,1-1.71.017,6.621,6.621,0,0,1-1.61-.246,1,1,0,0,1-.4-.2,73.8,73.8,0,0,1-.2-9.2c.047-2.512.116-4.391.163-5.582Zm-51.92,1.45H25.456v9.427H11.532a14.066,14.066,0,0,1,.007-9.427Zm15.578,0H42.788v9.427H27.116Zm17.334,0H58.732v9.427H44.451ZM63.469,29.8a19.23,19.23,0,0,0,3.749.16v1.763a6.1,6.1,0,0,1-3.749-.24Zm-46.525.063a4.5,4.5,0,1,1-4.5,4.5A4.483,4.483,0,0,1,16.944,29.861Zm37.663,0a4.5,4.5,0,1,1-4.5,4.5A4.486,4.486,0,0,1,54.607,29.861Zm-31.881,2.4h26.1a6.115,6.115,0,0,0-.379,2.1c0,.163.013.323.027.479H23.078c.013-.156.023-.316.023-.479a6.113,6.113,0,0,0-.376-2.1Z" transform="translate(0)" fill="#666"/>
  </g>
</svg>
